<?xml version="1.0" encoding="utf-8" standalone="no"?>
<!DOCTYPE svg PUBLIC "-//W3C//DTD SVG 1.1//EN"
  "http://www.w3.org/Graphics/SVG/1.1/DTD/svg11.dtd">
<!-- Created with matplotlib (https://matplotlib.org/) -->
<svg height="576pt" version="1.1" viewBox="0 0 504 576" width="504pt" xmlns="http://www.w3.org/2000/svg" xmlns:xlink="http://www.w3.org/1999/xlink">
 <defs>
  <style type="text/css">
*{stroke-linecap:butt;stroke-linejoin:round;}
  </style>
 </defs>
 <g id="figure_1">
  <g id="patch_1">
   <path d="M 0 576 
L 504 576 
L 504 0 
L 0 0 
z
" style="fill:#ffffff;"/>
  </g>
  <g id="axes_1">
   <g id="patch_2">
    <path d="M 78.78 145.24 
L 486.72 145.24 
L 486.72 35.28 
L 78.78 35.28 
z
" style="fill:#ffffff;"/>
   </g>
   <g id="matplotlib.axis_1">
    <g id="xtick_1">
     <g id="line2d_1">
      <defs>
       <path d="M 0 0 
L 0 3.5 
" id="m5562135028" style="stroke:#000000;stroke-width:0.8;"/>
      </defs>
      <g>
       <use style="stroke:#000000;stroke-width:0.8;" x="97.137207" xlink:href="#m5562135028" y="145.24"/>
      </g>
     </g>
     <g id="text_1">
      <!-- 0.00 -->
      <defs>
       <path d="M 31.78125 66.40625 
Q 24.171875 66.40625 20.328125 58.90625 
Q 16.5 51.421875 16.5 36.375 
Q 16.5 21.390625 20.328125 13.890625 
Q 24.171875 6.390625 31.78125 6.390625 
Q 39.453125 6.390625 43.28125 13.890625 
Q 47.125 21.390625 47.125 36.375 
Q 47.125 51.421875 43.28125 58.90625 
Q 39.453125 66.40625 31.78125 66.40625 
z
M 31.78125 74.21875 
Q 44.046875 74.21875 50.515625 64.515625 
Q 56.984375 54.828125 56.984375 36.375 
Q 56.984375 17.96875 50.515625 8.265625 
Q 44.046875 -1.421875 31.78125 -1.421875 
Q 19.53125 -1.421875 13.0625 8.265625 
Q 6.59375 17.96875 6.59375 36.375 
Q 6.59375 54.828125 13.0625 64.515625 
Q 19.53125 74.21875 31.78125 74.21875 
z
" id="DejaVuSans-48"/>
       <path d="M 10.6875 12.40625 
L 21 12.40625 
L 21 0 
L 10.6875 0 
z
" id="DejaVuSans-46"/>
      </defs>
      <g transform="translate(79.324707 164.3975)scale(0.16 -0.16)">
       <use xlink:href="#DejaVuSans-48"/>
       <use x="63.623047" xlink:href="#DejaVuSans-46"/>
       <use x="95.410156" xlink:href="#DejaVuSans-48"/>
       <use x="159.033203" xlink:href="#DejaVuSans-48"/>
      </g>
     </g>
    </g>
    <g id="xtick_2">
     <g id="line2d_2">
      <g>
       <use style="stroke:#000000;stroke-width:0.8;" x="189.897224" xlink:href="#m5562135028" y="145.24"/>
      </g>
     </g>
     <g id="text_2">
      <!-- 0.05 -->
      <defs>
       <path d="M 10.796875 72.90625 
L 49.515625 72.90625 
L 49.515625 64.59375 
L 19.828125 64.59375 
L 19.828125 46.734375 
Q 21.96875 47.46875 24.109375 47.828125 
Q 26.265625 48.1875 28.421875 48.1875 
Q 40.625 48.1875 47.75 41.5 
Q 54.890625 34.8125 54.890625 23.390625 
Q 54.890625 11.625 47.5625 5.09375 
Q 40.234375 -1.421875 26.90625 -1.421875 
Q 22.3125 -1.421875 17.546875 -0.640625 
Q 12.796875 0.140625 7.71875 1.703125 
L 7.71875 11.625 
Q 12.109375 9.234375 16.796875 8.0625 
Q 21.484375 6.890625 26.703125 6.890625 
Q 35.15625 6.890625 40.078125 11.328125 
Q 45.015625 15.765625 45.015625 23.390625 
Q 45.015625 31 40.078125 35.4375 
Q 35.15625 39.890625 26.703125 39.890625 
Q 22.75 39.890625 18.8125 39.015625 
Q 14.890625 38.140625 10.796875 36.28125 
z
" id="DejaVuSans-53"/>
      </defs>
      <g transform="translate(172.084724 164.3975)scale(0.16 -0.16)">
       <use xlink:href="#DejaVuSans-48"/>
       <use x="63.623047" xlink:href="#DejaVuSans-46"/>
       <use x="95.410156" xlink:href="#DejaVuSans-48"/>
       <use x="159.033203" xlink:href="#DejaVuSans-53"/>
      </g>
     </g>
    </g>
    <g id="xtick_3">
     <g id="line2d_3">
      <g>
       <use style="stroke:#000000;stroke-width:0.8;" x="282.65724" xlink:href="#m5562135028" y="145.24"/>
      </g>
     </g>
     <g id="text_3">
      <!-- 0.10 -->
      <defs>
       <path d="M 12.40625 8.296875 
L 28.515625 8.296875 
L 28.515625 63.921875 
L 10.984375 60.40625 
L 10.984375 69.390625 
L 28.421875 72.90625 
L 38.28125 72.90625 
L 38.28125 8.296875 
L 54.390625 8.296875 
L 54.390625 0 
L 12.40625 0 
z
" id="DejaVuSans-49"/>
      </defs>
      <g transform="translate(264.84474 164.3975)scale(0.16 -0.16)">
       <use xlink:href="#DejaVuSans-48"/>
       <use x="63.623047" xlink:href="#DejaVuSans-46"/>
       <use x="95.410156" xlink:href="#DejaVuSans-49"/>
       <use x="159.033203" xlink:href="#DejaVuSans-48"/>
      </g>
     </g>
    </g>
    <g id="xtick_4">
     <g id="line2d_4">
      <g>
       <use style="stroke:#000000;stroke-width:0.8;" x="375.417256" xlink:href="#m5562135028" y="145.24"/>
      </g>
     </g>
     <g id="text_4">
      <!-- 0.15 -->
      <g transform="translate(357.604756 164.3975)scale(0.16 -0.16)">
       <use xlink:href="#DejaVuSans-48"/>
       <use x="63.623047" xlink:href="#DejaVuSans-46"/>
       <use x="95.410156" xlink:href="#DejaVuSans-49"/>
       <use x="159.033203" xlink:href="#DejaVuSans-53"/>
      </g>
     </g>
    </g>
    <g id="xtick_5">
     <g id="line2d_5">
      <g>
       <use style="stroke:#000000;stroke-width:0.8;" x="468.177273" xlink:href="#m5562135028" y="145.24"/>
      </g>
     </g>
     <g id="text_5">
      <!-- 0.20 -->
      <defs>
       <path d="M 19.1875 8.296875 
L 53.609375 8.296875 
L 53.609375 0 
L 7.328125 0 
L 7.328125 8.296875 
Q 12.9375 14.109375 22.625 23.890625 
Q 32.328125 33.6875 34.8125 36.53125 
Q 39.546875 41.84375 41.421875 45.53125 
Q 43.3125 49.21875 43.3125 52.78125 
Q 43.3125 58.59375 39.234375 62.25 
Q 35.15625 65.921875 28.609375 65.921875 
Q 23.96875 65.921875 18.8125 64.3125 
Q 13.671875 62.703125 7.8125 59.421875 
L 7.8125 69.390625 
Q 13.765625 71.78125 18.9375 73 
Q 24.125 74.21875 28.421875 74.21875 
Q 39.75 74.21875 46.484375 68.546875 
Q 53.21875 62.890625 53.21875 53.421875 
Q 53.21875 48.921875 51.53125 44.890625 
Q 49.859375 40.875 45.40625 35.40625 
Q 44.1875 33.984375 37.640625 27.21875 
Q 31.109375 20.453125 19.1875 8.296875 
z
" id="DejaVuSans-50"/>
      </defs>
      <g transform="translate(450.364773 164.3975)scale(0.16 -0.16)">
       <use xlink:href="#DejaVuSans-48"/>
       <use x="63.623047" xlink:href="#DejaVuSans-46"/>
       <use x="95.410156" xlink:href="#DejaVuSans-50"/>
       <use x="159.033203" xlink:href="#DejaVuSans-48"/>
      </g>
     </g>
    </g>
    <g id="text_6">
     <!-- Time [s] -->
     <defs>
      <path d="M -0.296875 72.90625 
L 61.375 72.90625 
L 61.375 64.59375 
L 35.5 64.59375 
L 35.5 0 
L 25.59375 0 
L 25.59375 64.59375 
L -0.296875 64.59375 
z
" id="DejaVuSans-84"/>
      <path d="M 9.421875 54.6875 
L 18.40625 54.6875 
L 18.40625 0 
L 9.421875 0 
z
M 9.421875 75.984375 
L 18.40625 75.984375 
L 18.40625 64.59375 
L 9.421875 64.59375 
z
" id="DejaVuSans-105"/>
      <path d="M 52 44.1875 
Q 55.375 50.25 60.0625 53.125 
Q 64.75 56 71.09375 56 
Q 79.640625 56 84.28125 50.015625 
Q 88.921875 44.046875 88.921875 33.015625 
L 88.921875 0 
L 79.890625 0 
L 79.890625 32.71875 
Q 79.890625 40.578125 77.09375 44.375 
Q 74.3125 48.1875 68.609375 48.1875 
Q 61.625 48.1875 57.5625 43.546875 
Q 53.515625 38.921875 53.515625 30.90625 
L 53.515625 0 
L 44.484375 0 
L 44.484375 32.71875 
Q 44.484375 40.625 41.703125 44.40625 
Q 38.921875 48.1875 33.109375 48.1875 
Q 26.21875 48.1875 22.15625 43.53125 
Q 18.109375 38.875 18.109375 30.90625 
L 18.109375 0 
L 9.078125 0 
L 9.078125 54.6875 
L 18.109375 54.6875 
L 18.109375 46.1875 
Q 21.1875 51.21875 25.484375 53.609375 
Q 29.78125 56 35.6875 56 
Q 41.65625 56 45.828125 52.96875 
Q 50 49.953125 52 44.1875 
z
" id="DejaVuSans-109"/>
      <path d="M 56.203125 29.59375 
L 56.203125 25.203125 
L 14.890625 25.203125 
Q 15.484375 15.921875 20.484375 11.0625 
Q 25.484375 6.203125 34.421875 6.203125 
Q 39.59375 6.203125 44.453125 7.46875 
Q 49.3125 8.734375 54.109375 11.28125 
L 54.109375 2.78125 
Q 49.265625 0.734375 44.1875 -0.34375 
Q 39.109375 -1.421875 33.890625 -1.421875 
Q 20.796875 -1.421875 13.15625 6.1875 
Q 5.515625 13.8125 5.515625 26.8125 
Q 5.515625 40.234375 12.765625 48.109375 
Q 20.015625 56 32.328125 56 
Q 43.359375 56 49.78125 48.890625 
Q 56.203125 41.796875 56.203125 29.59375 
z
M 47.21875 32.234375 
Q 47.125 39.59375 43.09375 43.984375 
Q 39.0625 48.390625 32.421875 48.390625 
Q 24.90625 48.390625 20.390625 44.140625 
Q 15.875 39.890625 15.1875 32.171875 
z
" id="DejaVuSans-101"/>
      <path id="DejaVuSans-32"/>
      <path d="M 8.59375 75.984375 
L 29.296875 75.984375 
L 29.296875 69 
L 17.578125 69 
L 17.578125 -6.203125 
L 29.296875 -6.203125 
L 29.296875 -13.1875 
L 8.59375 -13.1875 
z
" id="DejaVuSans-91"/>
      <path d="M 44.28125 53.078125 
L 44.28125 44.578125 
Q 40.484375 46.53125 36.375 47.5 
Q 32.28125 48.484375 27.875 48.484375 
Q 21.1875 48.484375 17.84375 46.4375 
Q 14.5 44.390625 14.5 40.28125 
Q 14.5 37.15625 16.890625 35.375 
Q 19.28125 33.59375 26.515625 31.984375 
L 29.59375 31.296875 
Q 39.15625 29.25 43.1875 25.515625 
Q 47.21875 21.78125 47.21875 15.09375 
Q 47.21875 7.46875 41.1875 3.015625 
Q 35.15625 -1.421875 24.609375 -1.421875 
Q 20.21875 -1.421875 15.453125 -0.5625 
Q 10.6875 0.296875 5.421875 2 
L 5.421875 11.28125 
Q 10.40625 8.6875 15.234375 7.390625 
Q 20.0625 6.109375 24.8125 6.109375 
Q 31.15625 6.109375 34.5625 8.28125 
Q 37.984375 10.453125 37.984375 14.40625 
Q 37.984375 18.0625 35.515625 20.015625 
Q 33.0625 21.96875 24.703125 23.78125 
L 21.578125 24.515625 
Q 13.234375 26.265625 9.515625 29.90625 
Q 5.8125 33.546875 5.8125 39.890625 
Q 5.8125 47.609375 11.28125 51.796875 
Q 16.75 56 26.8125 56 
Q 31.78125 56 36.171875 55.265625 
Q 40.578125 54.546875 44.28125 53.078125 
z
" id="DejaVuSans-115"/>
      <path d="M 30.421875 75.984375 
L 30.421875 -13.1875 
L 9.71875 -13.1875 
L 9.71875 -6.203125 
L 21.390625 -6.203125 
L 21.390625 69 
L 9.71875 69 
L 9.71875 75.984375 
z
" id="DejaVuSans-93"/>
     </defs>
     <g transform="translate(250.22375 183.8825)scale(0.16 -0.16)">
      <use xlink:href="#DejaVuSans-84"/>
      <use x="57.958984" xlink:href="#DejaVuSans-105"/>
      <use x="85.742188" xlink:href="#DejaVuSans-109"/>
      <use x="183.154297" xlink:href="#DejaVuSans-101"/>
      <use x="244.677734" xlink:href="#DejaVuSans-32"/>
      <use x="276.464844" xlink:href="#DejaVuSans-91"/>
      <use x="315.478516" xlink:href="#DejaVuSans-115"/>
      <use x="367.578125" xlink:href="#DejaVuSans-93"/>
     </g>
    </g>
   </g>
   <g id="matplotlib.axis_2">
    <g id="ytick_1">
     <g id="line2d_6">
      <defs>
       <path d="M 0 0 
L -3.5 0 
" id="me807260690" style="stroke:#000000;stroke-width:0.8;"/>
      </defs>
      <g>
       <use style="stroke:#000000;stroke-width:0.8;" x="78.78" xlink:href="#me807260690" y="140.241818"/>
      </g>
     </g>
     <g id="text_7">
      <!-- 0.00 -->
      <g transform="translate(36.155 146.320568)scale(0.16 -0.16)">
       <use xlink:href="#DejaVuSans-48"/>
       <use x="63.623047" xlink:href="#DejaVuSans-46"/>
       <use x="95.410156" xlink:href="#DejaVuSans-48"/>
       <use x="159.033203" xlink:href="#DejaVuSans-48"/>
      </g>
     </g>
    </g>
    <g id="ytick_2">
     <g id="line2d_7">
      <g>
       <use style="stroke:#000000;stroke-width:0.8;" x="78.78" xlink:href="#me807260690" y="97.180834"/>
      </g>
     </g>
     <g id="text_8">
      <!-- 0.25 -->
      <g transform="translate(36.155 103.259584)scale(0.16 -0.16)">
       <use xlink:href="#DejaVuSans-48"/>
       <use x="63.623047" xlink:href="#DejaVuSans-46"/>
       <use x="95.410156" xlink:href="#DejaVuSans-50"/>
       <use x="159.033203" xlink:href="#DejaVuSans-53"/>
      </g>
     </g>
    </g>
    <g id="ytick_3">
     <g id="line2d_8">
      <g>
       <use style="stroke:#000000;stroke-width:0.8;" x="78.78" xlink:href="#me807260690" y="54.119851"/>
      </g>
     </g>
     <g id="text_9">
      <!-- 0.50 -->
      <g transform="translate(36.155 60.198601)scale(0.16 -0.16)">
       <use xlink:href="#DejaVuSans-48"/>
       <use x="63.623047" xlink:href="#DejaVuSans-46"/>
       <use x="95.410156" xlink:href="#DejaVuSans-53"/>
       <use x="159.033203" xlink:href="#DejaVuSans-48"/>
      </g>
     </g>
    </g>
    <g id="text_10">
     <!-- Voltege (V) -->
     <defs>
      <path d="M 28.609375 0 
L 0.78125 72.90625 
L 11.078125 72.90625 
L 34.1875 11.53125 
L 57.328125 72.90625 
L 67.578125 72.90625 
L 39.796875 0 
z
" id="DejaVuSans-86"/>
      <path d="M 30.609375 48.390625 
Q 23.390625 48.390625 19.1875 42.75 
Q 14.984375 37.109375 14.984375 27.296875 
Q 14.984375 17.484375 19.15625 11.84375 
Q 23.34375 6.203125 30.609375 6.203125 
Q 37.796875 6.203125 41.984375 11.859375 
Q 46.1875 17.53125 46.1875 27.296875 
Q 46.1875 37.015625 41.984375 42.703125 
Q 37.796875 48.390625 30.609375 48.390625 
z
M 30.609375 56 
Q 42.328125 56 49.015625 48.375 
Q 55.71875 40.765625 55.71875 27.296875 
Q 55.71875 13.875 49.015625 6.21875 
Q 42.328125 -1.421875 30.609375 -1.421875 
Q 18.84375 -1.421875 12.171875 6.21875 
Q 5.515625 13.875 5.515625 27.296875 
Q 5.515625 40.765625 12.171875 48.375 
Q 18.84375 56 30.609375 56 
z
" id="DejaVuSans-111"/>
      <path d="M 9.421875 75.984375 
L 18.40625 75.984375 
L 18.40625 0 
L 9.421875 0 
z
" id="DejaVuSans-108"/>
      <path d="M 18.3125 70.21875 
L 18.3125 54.6875 
L 36.8125 54.6875 
L 36.8125 47.703125 
L 18.3125 47.703125 
L 18.3125 18.015625 
Q 18.3125 11.328125 20.140625 9.421875 
Q 21.96875 7.515625 27.59375 7.515625 
L 36.8125 7.515625 
L 36.8125 0 
L 27.59375 0 
Q 17.1875 0 13.234375 3.875 
Q 9.28125 7.765625 9.28125 18.015625 
L 9.28125 47.703125 
L 2.6875 47.703125 
L 2.6875 54.6875 
L 9.28125 54.6875 
L 9.28125 70.21875 
z
" id="DejaVuSans-116"/>
      <path d="M 45.40625 27.984375 
Q 45.40625 37.75 41.375 43.109375 
Q 37.359375 48.484375 30.078125 48.484375 
Q 22.859375 48.484375 18.828125 43.109375 
Q 14.796875 37.75 14.796875 27.984375 
Q 14.796875 18.265625 18.828125 12.890625 
Q 22.859375 7.515625 30.078125 7.515625 
Q 37.359375 7.515625 41.375 12.890625 
Q 45.40625 18.265625 45.40625 27.984375 
z
M 54.390625 6.78125 
Q 54.390625 -7.171875 48.1875 -13.984375 
Q 42 -20.796875 29.203125 -20.796875 
Q 24.46875 -20.796875 20.265625 -20.09375 
Q 16.0625 -19.390625 12.109375 -17.921875 
L 12.109375 -9.1875 
Q 16.0625 -11.328125 19.921875 -12.34375 
Q 23.78125 -13.375 27.78125 -13.375 
Q 36.625 -13.375 41.015625 -8.765625 
Q 45.40625 -4.15625 45.40625 5.171875 
L 45.40625 9.625 
Q 42.625 4.78125 38.28125 2.390625 
Q 33.9375 0 27.875 0 
Q 17.828125 0 11.671875 7.65625 
Q 5.515625 15.328125 5.515625 27.984375 
Q 5.515625 40.671875 11.671875 48.328125 
Q 17.828125 56 27.875 56 
Q 33.9375 56 38.28125 53.609375 
Q 42.625 51.21875 45.40625 46.390625 
L 45.40625 54.6875 
L 54.390625 54.6875 
z
" id="DejaVuSans-103"/>
      <path d="M 31 75.875 
Q 24.46875 64.65625 21.28125 53.65625 
Q 18.109375 42.671875 18.109375 31.390625 
Q 18.109375 20.125 21.3125 9.0625 
Q 24.515625 -2 31 -13.1875 
L 23.1875 -13.1875 
Q 15.875 -1.703125 12.234375 9.375 
Q 8.59375 20.453125 8.59375 31.390625 
Q 8.59375 42.28125 12.203125 53.3125 
Q 15.828125 64.359375 23.1875 75.875 
z
" id="DejaVuSans-40"/>
      <path d="M 8.015625 75.875 
L 15.828125 75.875 
Q 23.140625 64.359375 26.78125 53.3125 
Q 30.421875 42.28125 30.421875 31.390625 
Q 30.421875 20.453125 26.78125 9.375 
Q 23.140625 -1.703125 15.828125 -13.1875 
L 8.015625 -13.1875 
Q 14.5 -2 17.703125 9.0625 
Q 20.90625 20.125 20.90625 31.390625 
Q 20.90625 42.671875 17.703125 53.65625 
Q 14.5 64.65625 8.015625 75.875 
z
" id="DejaVuSans-41"/>
     </defs>
     <g transform="translate(28.8275 134.5475)rotate(-90)scale(0.16 -0.16)">
      <use xlink:href="#DejaVuSans-86"/>
      <use x="60.658203" xlink:href="#DejaVuSans-111"/>
      <use x="121.839844" xlink:href="#DejaVuSans-108"/>
      <use x="149.623047" xlink:href="#DejaVuSans-116"/>
      <use x="188.832031" xlink:href="#DejaVuSans-101"/>
      <use x="250.355469" xlink:href="#DejaVuSans-103"/>
      <use x="313.832031" xlink:href="#DejaVuSans-101"/>
      <use x="375.355469" xlink:href="#DejaVuSans-32"/>
      <use x="407.142578" xlink:href="#DejaVuSans-40"/>
      <use x="446.15625" xlink:href="#DejaVuSans-86"/>
      <use x="514.564453" xlink:href="#DejaVuSans-41"/>
     </g>
    </g>
   </g>
   <g id="line2d_9">
    <path clip-path="url(#p73b7640126)" d="M 97.322727 62.112208 
L 97.508247 61.88919 
L 97.693767 61.202426 
L 97.879287 61.323551 
L 98.250327 60.420329 
L 98.435847 60.272584 
L 98.621368 60.865448 
L 98.806888 60.951617 
L 98.992408 60.782718 
L 99.177928 61.023082 
L 99.363448 60.750678 
L 99.548968 61.063123 
L 99.920008 60.164741 
L 100.105528 60.204472 
L 100.291048 60.488749 
L 100.476568 59.877321 
L 100.662088 60.109297 
L 100.847608 60.730375 
L 101.218648 58.877921 
L 101.404168 59.006462 
L 101.589688 59.473076 
L 101.775208 59.349498 
L 102.331768 57.565865 
L 102.517288 57.741394 
L 102.888328 57.558046 
L 103.259368 58.793221 
L 103.630408 57.865594 
L 103.815928 58.114474 
L 104.001448 57.4193 
L 104.558009 59.830385 
L 104.929049 60.48646 
L 105.114569 60.46108 
L 105.300089 60.791309 
L 105.485609 60.024104 
L 105.856649 61.538586 
L 106.042169 61.308978 
L 106.227689 62.209942 
L 106.413209 61.340021 
L 106.784249 62.28585 
L 107.155289 63.243187 
L 107.340809 63.150427 
L 107.526329 62.829303 
L 107.711849 63.294541 
L 107.897369 62.547825 
L 108.082889 62.565411 
L 108.453929 63.523022 
L 108.639449 63.481046 
L 109.010489 63.275203 
L 109.381529 64.747252 
L 109.752569 63.904434 
L 109.938089 63.283251 
L 110.30913 65.095903 
L 110.49465 64.849536 
L 110.68017 65.004002 
L 110.86569 65.362835 
L 111.05121 64.159203 
L 111.23673 64.441458 
L 111.42225 63.976957 
L 111.60777 64.693311 
L 111.79329 64.325345 
L 111.97881 64.924486 
L 112.34985 64.064721 
L 112.53537 64.929637 
L 112.90641 63.894401 
L 113.27745 63.522408 
L 113.46297 63.474906 
L 113.64849 63.775552 
L 114.01953 65.374457 
L 114.20505 65.125402 
L 114.39057 64.013144 
L 114.57609 64.196259 
L 114.76161 63.112678 
L 115.31817 63.062642 
L 115.50369 63.138931 
L 115.874731 65.476962 
L 116.060251 66.090462 
L 116.245771 67.754903 
L 116.431291 67.690431 
L 116.987851 67.878386 
L 117.173371 67.819868 
L 117.358891 67.592365 
L 117.544411 67.978808 
L 117.729931 68.675768 
L 117.915451 68.572796 
L 118.100971 68.767569 
L 118.286491 69.398619 
L 118.472011 69.557254 
L 118.657531 70.23442 
L 119.028571 68.823749 
L 119.214091 69.897172 
L 119.399611 69.921935 
L 119.585131 70.752416 
L 119.770651 69.523909 
L 120.141691 70.848528 
L 120.327211 70.929686 
L 120.512731 71.692875 
L 120.698251 71.090435 
L 120.883771 71.045079 
L 121.254811 69.986102 
L 121.625852 71.420625 
L 121.996892 70.019302 
L 122.182412 70.66411 
L 122.367932 70.699198 
L 122.553452 71.508159 
L 122.738972 71.388456 
L 123.110012 70.600648 
L 123.481052 71.666809 
L 123.666572 71.161542 
L 123.852092 71.355958 
L 124.037612 70.109348 
L 124.223132 70.252914 
L 124.408652 70.552672 
L 124.594172 70.060538 
L 124.779692 69.896912 
L 124.965212 70.044143 
L 125.150732 68.673584 
L 125.336252 68.719848 
L 125.707292 68.201696 
L 125.892812 68.338159 
L 126.078332 68.948718 
L 126.263852 67.922869 
L 126.449372 68.290866 
L 126.634892 67.616817 
L 126.820412 67.703459 
L 127.005933 67.663357 
L 127.191453 67.929643 
L 127.376973 67.452039 
L 127.562493 68.330187 
L 127.748013 67.169039 
L 127.933533 67.955271 
L 128.119053 67.834572 
L 128.304573 67.244768 
L 128.490093 68.356178 
L 128.675613 68.354395 
L 128.861133 68.134466 
L 129.046653 69.053598 
L 129.232173 68.876429 
L 129.417693 69.219913 
L 129.603213 69.242 
L 129.788733 68.050871 
L 129.974253 67.704734 
L 130.159773 67.668896 
L 130.345293 67.862149 
L 130.530813 68.595099 
L 130.901853 68.916647 
L 131.087373 68.625302 
L 131.272893 69.204126 
L 131.458413 68.444945 
L 131.643933 68.529271 
L 132.014973 69.174921 
L 132.386013 68.40402 
L 132.571533 67.338502 
L 132.757054 67.000424 
L 132.942574 66.286625 
L 133.128094 65.055212 
L 133.313614 65.280151 
L 133.499134 64.870913 
L 133.684654 64.935318 
L 133.870174 64.316241 
L 134.055694 64.626214 
L 134.426734 63.309517 
L 134.612254 63.798837 
L 134.797774 63.427285 
L 134.983294 63.646833 
L 135.168814 63.556793 
L 135.539854 61.951292 
L 135.725374 62.919941 
L 135.910894 62.725361 
L 136.096414 62.891084 
L 136.281934 62.559612 
L 136.467454 62.746073 
L 136.652974 62.443902 
L 136.838494 63.235728 
L 137.024014 62.971699 
L 137.209534 63.417005 
L 137.395054 63.143344 
L 137.580574 63.20475 
L 137.951614 61.481852 
L 138.137134 61.83677 
L 138.322655 59.824854 
L 138.693695 59.375751 
L 138.879215 59.536721 
L 139.250255 60.672782 
L 139.435775 60.714023 
L 139.621295 60.145852 
L 139.992335 61.29498 
L 140.177855 61.409442 
L 140.363375 61.726298 
L 140.548895 62.264323 
L 140.734415 62.186648 
L 140.919935 62.505299 
L 141.290975 61.275193 
L 141.476495 62.552041 
L 141.847535 62.788935 
L 142.033055 62.062754 
L 142.404095 62.525681 
L 142.960655 60.723544 
L 143.146175 61.437491 
L 143.331695 60.540566 
L 143.702735 60.816318 
L 143.888255 60.530166 
L 144.073776 59.6746 
L 144.259296 59.517685 
L 144.444816 59.521313 
L 144.630336 59.026711 
L 144.815856 57.692405 
L 145.001376 58.219088 
L 145.186896 58.141351 
L 145.372416 56.672389 
L 145.557936 56.432556 
L 145.743456 57.505229 
L 145.928976 56.76174 
L 146.114496 57.008355 
L 146.300016 57.726878 
L 146.485536 57.350611 
L 146.856576 57.730224 
L 147.042096 58.025807 
L 147.227616 57.541001 
L 147.413136 57.515177 
L 147.598656 56.634041 
L 147.784176 56.413816 
L 147.969696 56.681676 
L 148.340736 55.439322 
L 148.526256 56.657495 
L 148.711776 56.213881 
L 148.897296 56.370376 
L 149.268336 55.812718 
L 149.639377 53.096541 
L 149.824897 52.671542 
L 150.381457 53.587814 
L 150.566977 53.298949 
L 150.752497 53.454596 
L 150.938017 53.947497 
L 151.123537 53.054285 
L 151.309057 53.68415 
L 151.494577 53.251097 
L 151.680097 53.941496 
L 151.865617 53.840996 
L 152.051137 54.343885 
L 152.236657 54.275727 
L 152.422177 54.824421 
L 152.607697 55.900314 
L 152.793217 55.789872 
L 152.978737 56.098705 
L 153.164257 56.12229 
L 153.720817 51.471681 
L 153.906337 50.899911 
L 154.091857 49.853363 
L 154.277377 50.060235 
L 154.462897 49.787866 
L 154.648417 50.420082 
L 154.833937 50.1017 
L 155.019457 50.065477 
L 155.204977 49.858985 
L 155.576018 48.166532 
L 155.761538 48.365756 
L 155.947058 48.314085 
L 156.132578 47.446262 
L 156.318098 47.530311 
L 156.689138 46.492066 
L 156.874658 46.466637 
L 157.060178 47.251341 
L 157.245698 47.137558 
L 157.431218 46.474878 
L 157.616738 46.766762 
L 157.802258 47.442762 
L 158.173298 47.144153 
L 158.358818 47.243072 
L 158.729858 47.92431 
L 158.915378 48.477563 
L 159.100898 48.267971 
L 159.471938 50.062524 
L 159.657458 49.985119 
L 160.028498 47.234496 
L 160.214018 48.388236 
L 160.585058 47.806592 
L 160.956099 46.579345 
L 161.512659 46.918077 
L 161.698179 46.666746 
L 161.883699 47.813264 
L 162.069219 48.157808 
L 162.254739 48.844404 
L 162.440259 48.874098 
L 162.625779 48.701787 
L 162.811299 48.92989 
L 162.996819 48.453944 
L 163.182339 48.614146 
L 163.367859 47.778109 
L 163.553379 48.02814 
L 163.738899 47.862007 
L 163.924419 48.257859 
L 164.109939 48.288328 
L 164.295459 47.738589 
L 164.666499 47.952944 
L 165.037539 46.916543 
L 165.223059 47.172704 
L 165.408579 46.888338 
L 165.594099 48.134052 
L 165.779619 48.003179 
L 165.965139 48.752092 
L 166.150659 48.237403 
L 166.336179 49.364047 
L 166.521699 49.365993 
L 166.70722 50.077489 
L 166.89274 49.983103 
L 167.07826 50.324885 
L 167.26378 48.764038 
L 167.4493 48.710239 
L 167.63482 49.33883 
L 167.82034 49.009076 
L 168.19138 50.518636 
L 168.3769 50.341879 
L 168.56242 51.491444 
L 168.74794 51.40439 
L 168.93346 51.515966 
L 169.11898 50.849276 
L 169.3045 51.114317 
L 169.49002 50.700757 
L 170.41762 51.109737 
L 170.60314 51.011009 
L 170.78866 52.195634 
L 170.97418 51.752779 
L 171.1597 51.8942 
L 171.34522 52.5805 
L 171.53074 52.698998 
L 171.71626 53.193617 
L 172.0873 53.283995 
L 172.272821 53.899899 
L 172.458341 53.771182 
L 172.643861 54.269677 
L 172.829381 54.029346 
L 173.014901 55.351 
L 173.200421 55.253957 
L 173.571461 55.80597 
L 173.756981 54.947511 
L 173.942501 55.149854 
L 174.128021 54.942124 
L 174.499061 53.474799 
L 174.684581 54.059583 
L 174.870101 53.412987 
L 175.241141 54.63109 
L 175.426661 53.841333 
L 175.612181 54.245348 
L 175.797701 54.104953 
L 176.354261 52.625 
L 176.910821 53.026958 
L 177.096341 52.438536 
L 177.281861 53.584679 
L 177.467381 53.745826 
L 177.838421 52.884343 
L 178.023942 53.876173 
L 178.209462 53.286372 
L 178.394982 53.254918 
L 178.951542 54.763197 
L 179.137062 54.934323 
L 179.322582 54.335701 
L 180.064662 56.310826 
L 180.250182 57.49822 
L 180.435702 56.758846 
L 180.621222 56.732366 
L 180.992262 56.021819 
L 181.177782 55.937308 
L 181.363302 56.124619 
L 181.548822 56.884398 
L 181.919862 57.162883 
L 182.105382 56.853025 
L 182.476422 55.5989 
L 182.661942 56.153545 
L 182.847462 56.189854 
L 183.032982 55.98074 
L 183.218502 55.94644 
L 183.404022 55.203228 
L 183.589542 55.352794 
L 183.775063 54.58965 
L 184.146103 55.008459 
L 184.331623 55.822732 
L 184.517143 55.355364 
L 184.888183 54.099995 
L 185.073703 54.24834 
L 185.259223 53.813721 
L 185.444743 54.218527 
L 185.630263 53.523882 
L 185.815783 54.581817 
L 186.001303 54.791354 
L 186.186823 55.676414 
L 186.372343 55.930129 
L 186.557863 56.576133 
L 186.743383 56.645843 
L 186.928903 56.273816 
L 187.114423 56.27442 
L 187.299943 56.051789 
L 187.485463 56.180967 
L 187.856503 54.980979 
L 188.042023 55.771192 
L 188.598583 54.086322 
L 188.784103 53.913016 
L 188.969623 54.657773 
L 189.155143 54.169995 
L 189.340664 54.323946 
L 189.526184 54.150173 
L 189.711704 55.452307 
L 190.082744 54.508502 
L 190.453784 52.535435 
L 190.639304 52.622408 
L 190.824824 51.67251 
L 191.010344 52.471723 
L 191.381384 48.515808 
L 191.566904 48.058239 
L 191.752424 48.581826 
L 191.937944 48.520087 
L 192.680024 46.965336 
L 192.865544 47.272974 
L 193.051064 47.219546 
L 193.236584 47.290026 
L 193.422104 47.189965 
L 193.607624 46.81598 
L 193.793144 47.934039 
L 193.978664 47.887828 
L 194.164184 46.902518 
L 194.349704 47.15327 
L 194.720744 48.11841 
L 194.906264 47.728818 
L 195.091785 48.776099 
L 195.277305 48.665314 
L 195.462825 50.523382 
L 195.648345 49.662045 
L 195.833865 49.716783 
L 196.019385 48.948692 
L 196.204905 49.28614 
L 196.390425 49.144372 
L 196.575945 47.784746 
L 196.761465 48.385343 
L 196.946985 47.86419 
L 197.318025 50.657006 
L 197.503545 50.273646 
L 197.689065 50.262787 
L 197.874585 50.560915 
L 198.060105 50.578402 
L 198.245625 50.886906 
L 198.431145 50.724459 
L 198.802185 49.738734 
L 198.987705 49.743225 
L 199.358745 48.909747 
L 199.544265 48.70173 
L 199.729785 49.012583 
L 199.915305 50.607021 
L 200.286345 50.874254 
L 200.471865 51.80297 
L 200.657386 51.357271 
L 200.842906 51.359089 
L 201.028426 52.141231 
L 201.584986 50.541128 
L 201.770506 51.221052 
L 201.956026 50.922181 
L 202.141546 51.415942 
L 202.327066 53.072845 
L 202.698106 53.565773 
L 202.883626 52.316757 
L 203.069146 52.134348 
L 203.254666 51.310975 
L 203.440186 51.570971 
L 203.625706 51.057005 
L 203.811226 51.713084 
L 203.996746 51.082139 
L 204.182266 51.795304 
L 204.367786 51.02621 
L 204.553306 51.087438 
L 204.924346 52.086085 
L 205.109866 51.59348 
L 205.295386 52.128924 
L 205.480906 51.970682 
L 205.666426 52.283226 
L 206.037466 52.191244 
L 206.408507 53.140278 
L 206.594027 53.89562 
L 206.965067 53.556709 
L 207.150587 52.506028 
L 207.336107 52.431343 
L 207.521627 53.448754 
L 207.707147 52.621234 
L 207.892667 53.280678 
L 208.078187 52.85564 
L 208.263707 53.12869 
L 208.449227 52.680898 
L 208.634747 52.790019 
L 209.376827 54.866959 
L 209.562347 53.680555 
L 209.933387 53.490067 
L 210.118907 52.763778 
L 210.675467 54.138427 
L 210.860987 54.588618 
L 211.046507 53.592727 
L 211.232027 53.850212 
L 211.417547 54.56182 
L 211.603067 54.727599 
L 211.974108 55.726495 
L 212.159628 55.397378 
L 212.345148 56.507719 
L 212.530668 56.348489 
L 213.087228 53.188764 
L 213.272748 53.308038 
L 213.458268 53.373164 
L 213.829308 52.150799 
L 214.014828 52.680916 
L 214.200348 53.963495 
L 214.385868 54.229248 
L 214.571388 53.295611 
L 214.756908 53.341858 
L 215.127948 54.590789 
L 215.498988 53.917474 
L 215.684508 54.074314 
L 215.870028 53.968544 
L 216.241068 54.244777 
L 216.797628 56.231723 
L 216.983148 56.572154 
L 217.168668 57.178593 
L 217.539708 56.537612 
L 217.725229 55.842411 
L 217.910749 55.880723 
L 218.281789 56.807942 
L 218.467309 58.099348 
L 218.652829 57.963677 
L 218.838349 58.676005 
L 219.209389 57.798078 
L 219.394909 57.44764 
L 219.580429 56.788184 
L 219.951469 56.866106 
L 220.508029 58.025241 
L 220.693549 57.711579 
L 220.879069 57.851283 
L 221.250109 57.49653 
L 221.435629 57.698634 
L 221.621149 56.169249 
L 221.806669 56.086028 
L 221.992189 55.615145 
L 222.177709 56.794641 
L 222.363229 56.97398 
L 222.548749 56.800866 
L 222.734269 56.268776 
L 222.919789 56.769125 
L 223.105309 56.380345 
L 223.29083 57.260166 
L 223.66187 57.676887 
L 223.84739 56.610454 
L 224.03291 56.609064 
L 224.21843 55.715631 
L 224.58947 57.472253 
L 224.77499 57.338969 
L 224.96051 57.881796 
L 225.14603 57.290647 
L 225.33155 57.860285 
L 225.51707 57.32907 
L 225.88811 58.087468 
L 226.07363 57.477736 
L 226.25915 57.899621 
L 226.44467 57.64377 
L 226.81571 57.632835 
L 227.00123 56.500884 
L 227.18675 56.167421 
L 227.55779 56.172186 
L 227.74331 56.831175 
L 228.11435 56.301145 
L 228.29987 55.777102 
L 228.48539 54.695626 
L 228.67091 54.446887 
L 228.85643 55.128345 
L 229.041951 54.995326 
L 229.969551 56.563194 
L 230.155071 56.379302 
L 230.897151 60.005366 
L 231.082671 60.317054 
L 231.453711 62.516195 
L 231.639231 62.351321 
L 231.824751 62.615369 
L 232.195791 62.606569 
L 232.381311 62.995212 
L 232.566831 62.095366 
L 232.752351 61.861889 
L 233.123391 59.428425 
L 233.308911 59.016589 
L 233.494431 59.010733 
L 233.865471 59.733578 
L 234.050991 59.63787 
L 234.236511 59.062622 
L 234.422031 59.652827 
L 234.607552 59.650811 
L 234.793072 60.350198 
L 234.978592 60.268364 
L 235.164112 59.937087 
L 235.349632 59.349571 
L 235.535152 59.16754 
L 235.906192 59.714273 
L 236.091712 59.6863 
L 236.277232 59.78791 
L 236.648272 59.432762 
L 236.833792 58.833321 
L 237.019312 59.600237 
L 237.204832 59.423495 
L 237.390352 59.953366 
L 237.575872 60.083277 
L 237.761392 60.824337 
L 237.946912 60.780642 
L 238.317952 62.040627 
L 238.503472 60.700404 
L 238.874512 59.751896 
L 239.060032 60.208689 
L 239.245552 59.523258 
L 239.616592 59.974498 
L 239.802112 59.645244 
L 239.987632 59.546212 
L 240.173152 58.818394 
L 240.544193 59.968939 
L 240.729713 60.21668 
L 240.915233 60.140825 
L 241.100753 60.383442 
L 241.286273 60.40809 
L 241.471793 60.569603 
L 241.657313 60.021065 
L 242.028353 60.537518 
L 242.584913 60.354241 
L 242.770433 61.060011 
L 242.955953 60.984428 
L 243.141473 61.058656 
L 243.326993 61.543239 
L 243.512513 62.461782 
L 243.698033 62.336696 
L 244.254593 62.595652 
L 244.440113 61.796534 
L 244.625633 62.390755 
L 244.811153 62.399387 
L 244.996673 62.660471 
L 245.182193 63.807609 
L 245.367713 63.725355 
L 245.553233 64.455416 
L 246.109794 63.23338 
L 246.295314 62.902572 
L 246.480834 63.132836 
L 246.851874 62.154668 
L 247.222914 60.737354 
L 247.408434 61.549959 
L 247.593954 61.341074 
L 247.779474 62.713924 
L 247.964994 62.127396 
L 248.150514 62.469013 
L 248.336034 62.27338 
L 248.521554 62.512197 
L 248.892594 61.850031 
L 249.263634 62.723997 
L 249.449154 62.869845 
L 249.634674 62.398901 
L 250.005714 62.580475 
L 250.191234 61.240496 
L 250.376754 62.666369 
L 250.562274 62.312497 
L 250.747794 62.243074 
L 251.118834 61.237322 
L 251.304354 60.495869 
L 251.489874 60.981769 
L 251.860915 59.989612 
L 252.046435 60.308242 
L 252.231955 59.793461 
L 252.417475 60.618694 
L 252.602995 60.223169 
L 252.788515 60.289806 
L 252.974035 59.499343 
L 253.345075 60.074824 
L 253.716115 60.456019 
L 253.901635 61.270785 
L 254.087155 61.253239 
L 254.272675 61.668893 
L 254.643715 60.683717 
L 254.829235 61.417126 
L 255.200275 61.273295 
L 255.385795 61.700244 
L 255.571315 60.890833 
L 255.756835 60.866003 
L 255.942355 60.583787 
L 256.127875 60.795208 
L 256.313395 60.380863 
L 256.498915 58.706964 
L 256.684435 59.028843 
L 257.426516 58.244721 
L 257.797556 59.789835 
L 257.983076 59.464351 
L 258.168596 60.392344 
L 258.539636 59.80783 
L 259.281716 58.820807 
L 259.467236 59.451412 
L 259.838276 59.227133 
L 260.023796 59.784099 
L 260.209316 59.871968 
L 260.394836 58.707619 
L 260.580356 58.364167 
L 260.951396 59.781485 
L 261.136916 59.151723 
L 261.322436 60.083606 
L 261.507956 59.21708 
L 261.693476 59.734825 
L 262.064516 59.640794 
L 262.250036 59.672681 
L 262.435556 59.300109 
L 262.806596 56.608394 
L 262.992117 55.974572 
L 263.177637 57.237135 
L 263.363157 57.240507 
L 263.548677 56.52094 
L 263.734197 56.774434 
L 263.919717 55.547716 
L 264.105237 55.404974 
L 264.290757 55.434311 
L 264.476277 55.930905 
L 264.661797 55.995258 
L 264.847317 55.466384 
L 265.032837 55.523501 
L 265.218357 55.935809 
L 265.589397 54.445943 
L 265.774917 54.724639 
L 265.960437 54.361691 
L 266.145957 54.62077 
L 266.331477 54.269973 
L 266.516997 54.757975 
L 266.702517 54.787119 
L 266.888037 54.159665 
L 267.073557 55.217838 
L 267.444597 55.6843 
L 268.186677 58.455342 
L 268.372197 56.979688 
L 268.557717 57.908871 
L 268.743238 57.892641 
L 268.928758 57.569581 
L 269.114278 57.63382 
L 269.299798 57.839214 
L 269.485318 56.71449 
L 269.670838 57.303049 
L 269.856358 57.456155 
L 270.412918 58.547554 
L 271.154998 61.217854 
L 271.340518 60.882631 
L 271.711558 59.280219 
L 271.897078 59.963775 
L 272.082598 61.10433 
L 272.268118 61.0503 
L 272.453638 61.334634 
L 272.639158 61.249212 
L 273.010198 60.33164 
L 273.195718 59.363722 
L 273.381238 59.829367 
L 273.566758 59.846711 
L 273.937798 59.125437 
L 274.123318 59.723089 
L 274.308839 59.46728 
L 274.494359 59.64725 
L 274.679879 58.917991 
L 274.865399 58.842739 
L 275.050919 60.054711 
L 275.236439 60.426823 
L 275.421959 61.082657 
L 275.607479 60.382547 
L 276.164039 61.859519 
L 276.349559 62.117961 
L 276.535079 61.789052 
L 276.720599 61.936491 
L 276.906119 61.706627 
L 277.091639 60.920107 
L 277.462679 60.640407 
L 277.648199 59.978587 
L 277.833719 59.966937 
L 278.019239 59.212127 
L 278.204759 59.84287 
L 278.390279 59.388933 
L 278.575799 60.001108 
L 278.761319 60.155159 
L 278.946839 59.275512 
L 279.132359 59.174587 
L 279.317879 58.066746 
L 279.688919 58.477437 
L 279.874439 59.832067 
L 280.61652 61.857536 
L 280.80204 61.523143 
L 280.98756 60.514623 
L 281.17308 60.390671 
L 281.3586 60.63116 
L 281.54412 60.422235 
L 281.72964 60.010366 
L 281.91516 60.413772 
L 282.2862 59.082884 
L 282.47172 58.944225 
L 282.65724 58.166783 
L 282.84276 58.274183 
L 283.02828 58.648359 
L 283.2138 58.555841 
L 283.39932 58.635228 
L 283.58484 57.989852 
L 283.77036 58.312712 
L 283.95588 57.706852 
L 284.1414 58.145915 
L 284.51244 56.182227 
L 284.69796 56.160051 
L 284.88348 56.550985 
L 285.069 55.410655 
L 285.44004 56.747829 
L 285.625561 55.29059 
L 285.811081 55.70903 
L 285.996601 55.560493 
L 286.367641 56.086384 
L 286.553161 55.67858 
L 286.924201 55.678252 
L 287.109721 56.137672 
L 287.295241 54.984657 
L 287.480761 55.434871 
L 287.666281 54.701376 
L 287.851801 54.628705 
L 288.222841 54.67166 
L 288.408361 54.652027 
L 288.593881 55.647092 
L 288.779401 55.592432 
L 288.964921 55.868994 
L 289.150441 57.396089 
L 289.335961 57.015845 
L 289.521481 57.089351 
L 289.707001 56.614216 
L 289.892521 56.746239 
L 290.078041 57.136641 
L 290.263561 56.869182 
L 290.634601 57.551837 
L 291.005641 56.402317 
L 291.191161 56.536958 
L 291.376682 56.340634 
L 291.933242 54.484479 
L 292.304282 54.562851 
L 292.489802 55.054533 
L 292.675322 54.238707 
L 292.860842 54.362328 
L 293.231882 55.356971 
L 293.417402 54.649145 
L 293.788442 55.634061 
L 293.973962 55.476057 
L 294.159482 56.060825 
L 294.345002 55.125528 
L 294.530522 55.076885 
L 294.716042 55.400174 
L 295.087082 55.562643 
L 295.272602 56.066812 
L 295.829162 55.544581 
L 296.014682 55.916724 
L 296.200202 55.982499 
L 296.385722 56.49456 
L 296.571242 56.440968 
L 296.756762 56.15282 
L 297.127803 58.258238 
L 297.313323 57.904943 
L 297.498843 57.9641 
L 297.869883 58.744112 
L 298.055403 58.608434 
L 298.240923 58.966899 
L 298.426443 58.512613 
L 298.611963 59.10529 
L 298.797483 59.220554 
L 298.983003 58.123284 
L 299.168523 58.425109 
L 299.725083 57.857208 
L 299.910603 58.7633 
L 300.096123 58.782516 
L 300.281643 59.166818 
L 300.467163 59.063827 
L 300.652683 59.091973 
L 300.838203 59.003656 
L 301.023723 59.559715 
L 301.209243 59.688335 
L 301.394763 58.821989 
L 301.580283 58.533533 
L 301.765803 58.625347 
L 301.951323 58.006187 
L 302.136843 58.44371 
L 302.322363 57.673272 
L 302.507883 57.760201 
L 302.693404 58.806214 
L 302.878924 59.206042 
L 303.064444 59.19703 
L 303.249964 58.845137 
L 303.435484 59.448143 
L 303.621004 59.020754 
L 303.806524 58.876292 
L 303.992044 59.379825 
L 304.177564 59.239352 
L 304.548604 61.324414 
L 304.919644 59.92943 
L 305.105164 59.06796 
L 305.290684 59.30773 
L 305.847244 57.870444 
L 306.403804 58.84658 
L 306.589324 59.684528 
L 306.774844 59.694008 
L 306.960364 59.360243 
L 307.331404 58.280608 
L 307.516924 57.783098 
L 307.702444 57.738988 
L 307.887964 56.830593 
L 308.259005 57.581034 
L 308.444525 58.169433 
L 308.630045 56.981043 
L 308.815565 56.748009 
L 309.001085 56.869928 
L 309.372125 55.162967 
L 309.557645 55.4064 
L 309.743165 53.972348 
L 309.928685 53.625326 
L 310.114205 52.539345 
L 310.485245 52.959184 
L 310.670765 52.448956 
L 311.227325 54.923042 
L 311.598365 54.922966 
L 311.969405 54.317889 
L 312.154925 54.434498 
L 312.525965 55.354271 
L 312.711485 55.515382 
L 312.897005 55.295633 
L 313.268045 55.315335 
L 313.453565 54.557939 
L 313.639085 54.674284 
L 314.010126 55.722405 
L 314.195646 55.917333 
L 314.566686 55.139385 
L 314.937726 55.568997 
L 315.123246 55.318093 
L 315.308766 54.540993 
L 315.494286 54.69601 
L 315.679806 54.588662 
L 315.865326 54.266765 
L 316.050846 55.052306 
L 316.236366 55.238725 
L 316.421886 54.975786 
L 316.978446 55.799337 
L 317.349486 57.099656 
L 317.535006 56.99268 
L 317.720526 57.017338 
L 317.906046 56.373841 
L 318.277086 56.942483 
L 318.648126 56.908292 
L 319.019166 55.467743 
L 319.204686 55.607722 
L 319.390206 54.646586 
L 319.575726 55.122577 
L 319.761247 54.451369 
L 319.946767 54.353831 
L 320.132287 54.408663 
L 320.317807 55.04301 
L 320.503327 54.373245 
L 320.688847 55.635844 
L 320.874367 55.70151 
L 321.059887 55.947937 
L 321.245407 55.580751 
L 321.616447 56.41635 
L 321.801967 55.721261 
L 321.987487 54.153976 
L 322.173007 53.895489 
L 322.358527 54.377416 
L 322.544047 54.399599 
L 322.729567 53.891343 
L 323.657167 49.374737 
L 323.842687 49.292643 
L 324.028207 48.902891 
L 324.213727 48.174181 
L 324.399247 47.97763 
L 324.584767 48.449688 
L 324.770287 47.936514 
L 324.955807 46.791609 
L 325.141327 46.482822 
L 325.326848 45.613644 
L 325.697888 45.640868 
L 325.883408 45.276115 
L 326.068928 45.431689 
L 326.254448 46.64647 
L 326.439968 46.308158 
L 326.625488 47.675951 
L 326.811008 47.938046 
L 326.996528 47.3755 
L 327.182048 47.620977 
L 327.367568 48.065195 
L 327.553088 48.089126 
L 327.738608 47.950706 
L 327.924128 48.306706 
L 328.295168 46.380892 
L 328.480688 45.663074 
L 328.666208 45.818984 
L 328.851728 45.649307 
L 329.037248 46.822892 
L 329.222768 46.531037 
L 329.593808 47.522954 
L 329.779328 47.485394 
L 329.964848 47.672861 
L 330.150368 48.227095 
L 330.335888 47.989463 
L 330.521408 48.328597 
L 330.706928 47.597016 
L 331.263489 48.794339 
L 331.449009 48.204198 
L 331.820049 48.787293 
L 332.005569 50.29135 
L 332.191089 50.139194 
L 332.376609 49.688047 
L 332.562129 49.644365 
L 332.747649 49.820044 
L 333.118689 50.318092 
L 333.304209 51.186242 
L 333.489729 51.057266 
L 333.860769 52.426719 
L 334.231809 50.421622 
L 334.602849 51.092242 
L 334.973889 49.287588 
L 335.159409 49.830689 
L 335.530449 48.610155 
L 335.715969 48.81429 
L 335.901489 48.359801 
L 336.087009 47.25835 
L 336.272529 47.654406 
L 336.64357 46.902979 
L 336.82909 47.905842 
L 337.01461 47.929916 
L 337.20013 48.374961 
L 337.38565 47.619046 
L 337.57117 48.010381 
L 338.12773 48.446527 
L 338.31325 49.725103 
L 338.49877 49.228294 
L 338.68429 49.162113 
L 338.86981 48.44745 
L 339.05533 48.735146 
L 339.42637 48.116947 
L 339.79741 49.332928 
L 340.35397 47.786625 
L 340.72501 50.396068 
L 340.91053 50.759041 
L 341.09605 49.15973 
L 341.28157 49.075444 
L 341.46709 49.453773 
L 341.65261 48.40572 
L 341.83813 48.332858 
L 342.02365 49.16768 
L 342.20917 49.394899 
L 342.394691 50.491825 
L 342.580211 50.071242 
L 342.765731 49.063733 
L 343.136771 48.588357 
L 343.322291 48.266174 
L 343.507811 48.935041 
L 343.693331 48.667174 
L 343.878851 48.825313 
L 344.064371 48.246423 
L 344.249891 48.419051 
L 344.620931 49.22881 
L 344.806451 47.740109 
L 344.991971 48.401479 
L 345.177491 47.883857 
L 345.734051 49.053598 
L 345.919571 48.269693 
L 346.105091 48.783206 
L 346.476131 48.878413 
L 346.847171 49.353139 
L 347.032691 48.082958 
L 347.218211 48.379896 
L 347.403731 49.756875 
L 347.589251 50.299635 
L 347.774771 49.44167 
L 347.960292 49.140551 
L 348.331332 50.17694 
L 348.516852 49.349101 
L 348.702372 49.461223 
L 348.887892 49.041218 
L 349.444452 49.343194 
L 349.815492 48.249459 
L 350.186532 47.75982 
L 350.372052 47.699044 
L 350.557572 47.755735 
L 350.743092 47.957358 
L 350.928612 47.598953 
L 351.114132 48.248222 
L 351.299652 48.466861 
L 351.485172 47.707073 
L 351.856212 47.965862 
L 352.041732 47.702794 
L 352.227252 46.936971 
L 352.598292 48.120736 
L 352.783812 48.024769 
L 352.969332 48.433819 
L 353.154852 48.465359 
L 353.525892 50.17549 
L 353.711413 50.065341 
L 354.082453 50.693776 
L 354.267973 50.391612 
L 354.453493 50.335962 
L 354.639013 51.669943 
L 354.824533 51.265404 
L 355.010053 52.011169 
L 355.195573 51.240379 
L 355.381093 50.972143 
L 355.566613 51.129421 
L 356.123173 48.819672 
L 356.308693 49.418364 
L 356.679733 49.216421 
L 357.050773 50.772461 
L 357.236293 50.525409 
L 357.607333 48.276412 
L 357.792853 47.789058 
L 358.349413 48.621679 
L 358.534933 47.733957 
L 358.720453 48.720865 
L 358.905973 47.514589 
L 359.091493 47.543474 
L 359.277014 47.732207 
L 359.833574 46.938305 
L 360.019094 46.878011 
L 360.204614 46.610041 
L 360.575654 44.81331 
L 360.761174 45.518882 
L 361.503254 46.13062 
L 361.688774 45.599608 
L 362.059814 45.218071 
L 362.245334 45.453873 
L 362.430854 45.968579 
L 362.616374 45.301205 
L 362.801894 46.216208 
L 363.172934 45.674321 
L 363.543974 45.870683 
L 363.729494 46.101227 
L 363.915014 45.197832 
L 364.100534 44.947912 
L 364.471574 46.378819 
L 364.657094 46.543981 
L 364.842614 46.893985 
L 365.028135 46.556495 
L 365.213655 46.655706 
L 365.399175 46.204308 
L 365.584695 46.777322 
L 365.770215 46.53797 
L 365.955735 45.611226 
L 366.141255 46.077482 
L 366.326775 46.031042 
L 366.697815 46.845353 
L 366.883335 46.47542 
L 367.068855 45.621268 
L 367.439895 46.924287 
L 367.625415 46.612304 
L 367.810935 47.050204 
L 367.996455 46.893922 
L 368.367495 46.093381 
L 368.553015 46.293367 
L 368.738535 47.518482 
L 368.924055 47.757311 
L 369.295095 48.646202 
L 369.480615 48.026036 
L 369.851655 48.652576 
L 370.037175 47.733079 
L 370.222695 46.075079 
L 370.593736 45.069322 
L 370.779256 45.789976 
L 370.964776 45.184933 
L 371.150296 44.979194 
L 371.521336 46.112112 
L 371.892376 47.011682 
L 372.077896 46.739119 
L 372.448936 47.346795 
L 372.634456 47.172319 
L 372.819976 46.193775 
L 373.005496 45.910686 
L 373.191016 46.221847 
L 373.562056 45.87375 
L 373.747576 46.240441 
L 373.933096 45.891125 
L 374.118616 45.864335 
L 374.304136 45.213486 
L 374.489656 45.370149 
L 374.675176 45.844502 
L 374.860696 45.839748 
L 375.417256 45.434582 
L 375.602776 47.07911 
L 375.973816 46.159181 
L 376.159336 46.486036 
L 376.344857 46.192856 
L 376.530377 46.39103 
L 376.715897 46.908022 
L 377.086937 46.034753 
L 377.272457 46.432491 
L 377.643497 44.439293 
L 378.756617 46.39292 
L 378.942137 45.934226 
L 379.127657 46.170214 
L 379.313177 46.13697 
L 379.498697 46.812805 
L 379.869737 45.430858 
L 380.055257 45.664856 
L 380.240777 45.441217 
L 380.611817 44.626782 
L 380.982857 44.265992 
L 381.168377 45.339468 
L 381.539417 44.784161 
L 381.724937 45.466731 
L 381.910458 45.302436 
L 382.095978 46.438164 
L 382.281498 45.924667 
L 382.467018 45.996901 
L 382.838058 46.858677 
L 383.209098 45.745826 
L 383.394618 46.697648 
L 383.580138 46.503011 
L 383.765658 46.043489 
L 384.136698 45.810542 
L 384.322218 45.825167 
L 384.878778 44.362922 
L 385.064298 44.806481 
L 385.249818 44.477972 
L 385.435338 44.994179 
L 385.991898 44.812381 
L 386.177418 44.044973 
L 386.362938 44.288174 
L 386.548458 43.016821 
L 386.733978 43.289293 
L 386.919498 43.820396 
L 387.105018 43.505537 
L 387.476058 42.141206 
L 387.661579 42.527572 
L 388.032619 42.445567 
L 388.403659 41.499298 
L 388.589179 41.47682 
L 389.145739 40.854393 
L 389.331259 41.257088 
L 389.702299 40.278182 
L 390.073339 41.178476 
L 390.258859 42.013712 
L 390.444379 43.555345 
L 390.629899 43.254517 
L 390.815419 43.727727 
L 391.000939 43.395599 
L 391.371979 41.612961 
L 391.557499 42.559992 
L 391.928539 42.746216 
L 392.114059 43.283488 
L 392.299579 42.913428 
L 392.485099 43.052201 
L 392.670619 44.067895 
L 392.856139 43.818437 
L 393.041659 45.152075 
L 393.4127 44.091943 
L 393.59822 44.054394 
L 393.78374 44.488383 
L 393.96926 44.354025 
L 394.15478 44.885611 
L 394.3403 44.087726 
L 394.52582 43.837387 
L 394.71134 44.356046 
L 394.89686 44.53918 
L 395.08238 42.738295 
L 395.2679 42.776777 
L 395.45342 43.031361 
L 395.63894 42.48876 
L 396.00998 43.263574 
L 396.1955 42.854249 
L 396.56654 44.111582 
L 396.93758 43.325155 
L 397.1231 44.68296 
L 397.30862 45.178231 
L 397.49414 45.343795 
L 397.67966 45.18734 
L 397.86518 44.602565 
L 398.23622 44.545512 
L 398.60726 45.694406 
L 398.79278 45.2075 
L 398.978301 45.867948 
L 399.163821 45.53208 
L 399.720381 47.127632 
L 399.905901 46.54363 
L 400.091421 47.8067 
L 400.462461 47.567447 
L 400.647981 46.972532 
L 400.833501 46.956555 
L 401.019021 46.712912 
L 401.390061 48.166065 
L 401.575581 48.56598 
L 401.761101 49.887937 
L 401.946621 49.233222 
L 402.132141 49.665009 
L 402.317661 49.255019 
L 402.688701 50.27916 
L 403.059741 49.656588 
L 403.245261 50.462 
L 403.616301 50.443825 
L 403.801821 50.510667 
L 403.987341 50.328966 
L 404.172861 49.435489 
L 404.358381 49.84964 
L 404.543901 48.954146 
L 404.729422 48.741809 
L 405.842542 50.932808 
L 406.028062 50.610184 
L 406.213582 50.557547 
L 406.399102 49.652977 
L 406.584622 49.493416 
L 406.770142 48.976451 
L 406.955662 50.076934 
L 407.697742 47.965098 
L 408.068782 47.369355 
L 408.254302 47.545287 
L 408.439822 47.34223 
L 408.625342 47.773257 
L 408.810862 48.511486 
L 408.996382 47.504484 
L 409.552942 48.250394 
L 409.738462 48.759659 
L 410.109502 48.557332 
L 410.295023 48.150084 
L 410.480543 48.027048 
L 410.666063 49.154458 
L 410.851583 48.71647 
L 411.037103 49.615837 
L 411.408143 48.173383 
L 411.593663 48.902708 
L 411.779183 47.695995 
L 411.964703 47.812935 
L 412.335743 48.518845 
L 412.521263 48.174915 
L 412.706783 48.40706 
L 413.077823 50.112538 
L 413.263343 50.752853 
L 413.448863 50.772813 
L 413.634383 52.086492 
L 413.819903 50.61972 
L 414.005423 50.663237 
L 414.376463 51.518287 
L 414.561983 52.192104 
L 414.747503 52.029759 
L 414.933023 52.615589 
L 415.118543 52.668777 
L 415.304063 52.30882 
L 415.860623 52.419076 
L 416.046144 51.487737 
L 416.231664 51.910151 
L 416.417184 51.331746 
L 416.602704 51.230402 
L 416.973744 51.677989 
L 417.159264 51.82799 
L 417.530304 52.954919 
L 417.901344 53.043087 
L 418.272384 53.890972 
L 418.457904 52.027202 
L 418.643424 52.21891 
L 419.014464 53.686132 
L 419.199984 53.954772 
L 419.571024 55.028388 
L 419.756544 55.156141 
L 420.127584 56.456418 
L 420.313104 56.502049 
L 420.684144 56.36917 
L 420.869664 57.156536 
L 421.055184 56.671662 
L 421.240704 56.657765 
L 421.426224 56.42912 
L 421.611745 55.972557 
L 421.797265 55.982829 
L 421.982785 55.647148 
L 422.168305 55.768655 
L 422.353825 54.913024 
L 422.539345 54.601738 
L 422.910385 56.14911 
L 423.281425 54.920105 
L 423.466945 55.678916 
L 423.837985 54.898418 
L 424.209025 52.675875 
L 424.394545 52.79778 
L 424.580065 53.1047 
L 424.951105 53.250917 
L 425.136625 53.01573 
L 425.322145 53.122764 
L 425.507665 53.835552 
L 425.693185 53.601807 
L 425.878705 53.046954 
L 426.249745 53.099203 
L 426.435265 53.557431 
L 426.620785 52.843667 
L 427.362866 55.586695 
L 427.548386 55.296417 
L 427.733906 56.632778 
L 427.919426 57.067834 
L 428.104946 56.667843 
L 428.290466 57.072651 
L 428.475986 56.7056 
L 428.661506 57.458378 
L 428.847026 56.39507 
L 429.032546 56.045609 
L 429.403586 54.848543 
L 429.589106 55.158964 
L 429.774626 54.843073 
L 429.960146 55.372318 
L 430.145666 55.048947 
L 430.331186 56.567414 
L 430.516706 56.702158 
L 430.702226 58.145866 
L 430.887746 58.014368 
L 431.444306 57.045771 
L 431.629826 57.069388 
L 432.000866 56.044783 
L 432.186386 55.756045 
L 432.742946 55.976472 
L 432.928467 56.924376 
L 433.113987 56.691163 
L 433.299507 55.884424 
L 433.485027 55.782018 
L 434.227107 56.694833 
L 434.412627 55.3631 
L 434.598147 56.024714 
L 434.783667 55.809028 
L 435.154707 56.203298 
L 435.525747 55.921565 
L 435.896787 53.658354 
L 436.267827 52.51894 
L 436.453347 53.284919 
L 436.638867 53.463727 
L 437.380947 55.614345 
L 437.566467 55.121633 
L 437.937507 55.198948 
L 438.308547 54.904549 
L 438.494067 55.778284 
L 438.679588 54.920771 
L 438.865108 55.851385 
L 439.050628 55.357541 
L 439.236148 54.450387 
L 439.421668 55.453446 
L 439.607188 55.831588 
L 439.792708 55.468899 
L 439.978228 56.25354 
L 440.163748 54.952688 
L 440.349268 54.740744 
L 440.720308 56.314065 
L 440.905828 56.403376 
L 441.091348 56.99958 
L 441.276868 56.736587 
L 441.647908 55.064808 
L 441.833428 55.135785 
L 442.204468 54.395256 
L 442.389988 54.991219 
L 442.946548 57.642029 
L 443.132068 57.903931 
L 443.317588 57.385398 
L 443.503108 57.247256 
L 444.059668 55.681669 
L 444.245189 56.776235 
L 444.430709 56.056906 
L 444.616229 55.974359 
L 445.358309 58.029739 
L 445.543829 58.959661 
L 445.729349 58.657163 
L 445.914869 58.726861 
L 446.100389 58.252397 
L 446.471429 59.018422 
L 446.656949 58.398773 
L 446.842469 58.266524 
L 447.213509 58.803045 
L 447.399029 58.486351 
L 447.584549 58.530651 
L 447.770069 59.359596 
L 448.141109 59.44302 
L 448.326629 60.070683 
L 448.512149 59.985802 
L 448.697669 60.999305 
L 448.883189 60.931734 
L 449.254229 62.447477 
L 449.439749 62.262756 
L 449.625269 62.36326 
L 449.99631 62.93553 
L 450.55287 63.146567 
L 450.73839 63.065829 
L 450.92391 62.615795 
L 451.29495 64.078346 
L 451.48047 64.251145 
L 451.66599 63.150431 
L 451.85151 63.077 
L 452.03703 62.865653 
L 452.22255 62.917302 
L 452.40807 63.344256 
L 452.59359 63.425776 
L 452.77911 63.213443 
L 452.96463 63.664946 
L 453.15015 63.234788 
L 453.33567 61.728847 
L 453.52119 61.725594 
L 453.70671 62.206515 
L 453.89223 62.255618 
L 454.07775 61.51439 
L 454.26327 61.506529 
L 454.44879 62.19543 
L 454.81983 61.110078 
L 455.00535 62.30081 
L 455.37639 61.715355 
L 455.561911 62.231602 
L 455.747431 61.827502 
L 455.932951 60.832744 
L 456.118471 60.696937 
L 456.489511 60.292329 
L 456.675031 60.189608 
L 457.046071 62.230013 
L 457.231591 61.89224 
L 457.417111 61.854259 
L 457.602631 62.052835 
L 457.788151 61.352695 
L 458.159191 61.586387 
L 458.344711 61.94552 
L 458.530231 61.46336 
L 458.715751 62.622824 
L 459.086791 61.171109 
L 459.457831 61.040705 
L 459.643351 60.788206 
L 459.828871 61.071435 
L 460.014391 60.732174 
L 460.199911 60.73498 
L 460.385431 60.233766 
L 460.570951 60.845024 
L 460.756471 59.768409 
L 461.313032 61.299928 
L 461.498552 61.070592 
L 461.684072 60.123863 
L 461.869592 60.747503 
L 462.055112 60.728735 
L 462.426152 59.875561 
L 462.611672 60.496277 
L 462.797192 60.716657 
L 462.982712 61.159671 
L 463.353752 60.498865 
L 463.539272 59.768482 
L 463.724792 59.766747 
L 464.281352 58.783696 
L 464.466872 58.918518 
L 464.837912 59.996164 
L 465.208952 59.037058 
L 465.394472 59.161551 
L 465.579992 59.532135 
L 465.765512 58.784282 
L 465.951032 59.710077 
L 466.136552 59.62646 
L 466.507592 60.591543 
L 466.693112 59.898752 
L 466.878632 60.465574 
L 467.064153 60.081982 
L 467.249673 60.095845 
L 467.435193 60.627441 
L 467.806233 59.352595 
L 467.991753 58.205124 
L 468.177273 59.449401 
L 468.177273 59.449401 
" style="fill:none;stroke:#1f77b4;stroke-linecap:square;stroke-width:1.5;"/>
   </g>
   <g id="line2d_10">
    <path clip-path="url(#p73b7640126)" d="M 97.322727 140.241818 
L 468.177273 140.241818 
L 468.177273 140.241818 
" style="fill:none;stroke:#000000;stroke-linecap:square;stroke-width:1.5;"/>
   </g>
   <g id="patch_3">
    <path d="M 78.78 145.24 
L 78.78 35.28 
" style="fill:none;stroke:#000000;stroke-linecap:square;stroke-linejoin:miter;stroke-width:0.8;"/>
   </g>
   <g id="patch_4">
    <path d="M 486.72 145.24 
L 486.72 35.28 
" style="fill:none;stroke:#000000;stroke-linecap:square;stroke-linejoin:miter;stroke-width:0.8;"/>
   </g>
   <g id="patch_5">
    <path d="M 78.78 145.24 
L 486.72 145.24 
" style="fill:none;stroke:#000000;stroke-linecap:square;stroke-linejoin:miter;stroke-width:0.8;"/>
   </g>
   <g id="patch_6">
    <path d="M 78.78 35.28 
L 486.72 35.28 
" style="fill:none;stroke:#000000;stroke-linecap:square;stroke-linejoin:miter;stroke-width:0.8;"/>
   </g>
   <g id="text_11">
    <!-- Input: 0.0 -->
    <defs>
     <path d="M 9.8125 72.90625 
L 19.671875 72.90625 
L 19.671875 0 
L 9.8125 0 
z
" id="DejaVuSans-73"/>
     <path d="M 54.890625 33.015625 
L 54.890625 0 
L 45.90625 0 
L 45.90625 32.71875 
Q 45.90625 40.484375 42.875 44.328125 
Q 39.84375 48.1875 33.796875 48.1875 
Q 26.515625 48.1875 22.3125 43.546875 
Q 18.109375 38.921875 18.109375 30.90625 
L 18.109375 0 
L 9.078125 0 
L 9.078125 54.6875 
L 18.109375 54.6875 
L 18.109375 46.1875 
Q 21.34375 51.125 25.703125 53.5625 
Q 30.078125 56 35.796875 56 
Q 45.21875 56 50.046875 50.171875 
Q 54.890625 44.34375 54.890625 33.015625 
z
" id="DejaVuSans-110"/>
     <path d="M 18.109375 8.203125 
L 18.109375 -20.796875 
L 9.078125 -20.796875 
L 9.078125 54.6875 
L 18.109375 54.6875 
L 18.109375 46.390625 
Q 20.953125 51.265625 25.265625 53.625 
Q 29.59375 56 35.59375 56 
Q 45.5625 56 51.78125 48.09375 
Q 58.015625 40.1875 58.015625 27.296875 
Q 58.015625 14.40625 51.78125 6.484375 
Q 45.5625 -1.421875 35.59375 -1.421875 
Q 29.59375 -1.421875 25.265625 0.953125 
Q 20.953125 3.328125 18.109375 8.203125 
z
M 48.6875 27.296875 
Q 48.6875 37.203125 44.609375 42.84375 
Q 40.53125 48.484375 33.40625 48.484375 
Q 26.265625 48.484375 22.1875 42.84375 
Q 18.109375 37.203125 18.109375 27.296875 
Q 18.109375 17.390625 22.1875 11.75 
Q 26.265625 6.109375 33.40625 6.109375 
Q 40.53125 6.109375 44.609375 11.75 
Q 48.6875 17.390625 48.6875 27.296875 
z
" id="DejaVuSans-112"/>
     <path d="M 8.5 21.578125 
L 8.5 54.6875 
L 17.484375 54.6875 
L 17.484375 21.921875 
Q 17.484375 14.15625 20.5 10.265625 
Q 23.53125 6.390625 29.59375 6.390625 
Q 36.859375 6.390625 41.078125 11.03125 
Q 45.3125 15.671875 45.3125 23.6875 
L 45.3125 54.6875 
L 54.296875 54.6875 
L 54.296875 0 
L 45.3125 0 
L 45.3125 8.40625 
Q 42.046875 3.421875 37.71875 1 
Q 33.40625 -1.421875 27.6875 -1.421875 
Q 18.265625 -1.421875 13.375 4.4375 
Q 8.5 10.296875 8.5 21.578125 
z
M 31.109375 56 
z
" id="DejaVuSans-117"/>
     <path d="M 11.71875 12.40625 
L 22.015625 12.40625 
L 22.015625 0 
L 11.71875 0 
z
M 11.71875 51.703125 
L 22.015625 51.703125 
L 22.015625 39.3125 
L 11.71875 39.3125 
z
" id="DejaVuSans-58"/>
    </defs>
    <g transform="translate(244.075 29.28)scale(0.16 -0.16)">
     <use xlink:href="#DejaVuSans-73"/>
     <use x="29.492188" xlink:href="#DejaVuSans-110"/>
     <use x="92.871094" xlink:href="#DejaVuSans-112"/>
     <use x="156.347656" xlink:href="#DejaVuSans-117"/>
     <use x="219.726562" xlink:href="#DejaVuSans-116"/>
     <use x="258.935547" xlink:href="#DejaVuSans-58"/>
     <use x="292.626953" xlink:href="#DejaVuSans-32"/>
     <use x="324.414062" xlink:href="#DejaVuSans-48"/>
     <use x="388.037109" xlink:href="#DejaVuSans-46"/>
     <use x="419.824219" xlink:href="#DejaVuSans-48"/>
    </g>
   </g>
  </g>
  <g id="axes_2">
   <g id="patch_7">
    <path d="M 78.78 331.48 
L 486.72 331.48 
L 486.72 221.52 
L 78.78 221.52 
z
" style="fill:#ffffff;"/>
   </g>
   <g id="matplotlib.axis_3">
    <g id="xtick_6">
     <g id="line2d_11">
      <g>
       <use style="stroke:#000000;stroke-width:0.8;" x="97.137207" xlink:href="#m5562135028" y="331.48"/>
      </g>
     </g>
     <g id="text_12">
      <!-- 0.00 -->
      <g transform="translate(79.324707 350.6375)scale(0.16 -0.16)">
       <use xlink:href="#DejaVuSans-48"/>
       <use x="63.623047" xlink:href="#DejaVuSans-46"/>
       <use x="95.410156" xlink:href="#DejaVuSans-48"/>
       <use x="159.033203" xlink:href="#DejaVuSans-48"/>
      </g>
     </g>
    </g>
    <g id="xtick_7">
     <g id="line2d_12">
      <g>
       <use style="stroke:#000000;stroke-width:0.8;" x="189.897224" xlink:href="#m5562135028" y="331.48"/>
      </g>
     </g>
     <g id="text_13">
      <!-- 0.05 -->
      <g transform="translate(172.084724 350.6375)scale(0.16 -0.16)">
       <use xlink:href="#DejaVuSans-48"/>
       <use x="63.623047" xlink:href="#DejaVuSans-46"/>
       <use x="95.410156" xlink:href="#DejaVuSans-48"/>
       <use x="159.033203" xlink:href="#DejaVuSans-53"/>
      </g>
     </g>
    </g>
    <g id="xtick_8">
     <g id="line2d_13">
      <g>
       <use style="stroke:#000000;stroke-width:0.8;" x="282.65724" xlink:href="#m5562135028" y="331.48"/>
      </g>
     </g>
     <g id="text_14">
      <!-- 0.10 -->
      <g transform="translate(264.84474 350.6375)scale(0.16 -0.16)">
       <use xlink:href="#DejaVuSans-48"/>
       <use x="63.623047" xlink:href="#DejaVuSans-46"/>
       <use x="95.410156" xlink:href="#DejaVuSans-49"/>
       <use x="159.033203" xlink:href="#DejaVuSans-48"/>
      </g>
     </g>
    </g>
    <g id="xtick_9">
     <g id="line2d_14">
      <g>
       <use style="stroke:#000000;stroke-width:0.8;" x="375.417256" xlink:href="#m5562135028" y="331.48"/>
      </g>
     </g>
     <g id="text_15">
      <!-- 0.15 -->
      <g transform="translate(357.604756 350.6375)scale(0.16 -0.16)">
       <use xlink:href="#DejaVuSans-48"/>
       <use x="63.623047" xlink:href="#DejaVuSans-46"/>
       <use x="95.410156" xlink:href="#DejaVuSans-49"/>
       <use x="159.033203" xlink:href="#DejaVuSans-53"/>
      </g>
     </g>
    </g>
    <g id="xtick_10">
     <g id="line2d_15">
      <g>
       <use style="stroke:#000000;stroke-width:0.8;" x="468.177273" xlink:href="#m5562135028" y="331.48"/>
      </g>
     </g>
     <g id="text_16">
      <!-- 0.20 -->
      <g transform="translate(450.364773 350.6375)scale(0.16 -0.16)">
       <use xlink:href="#DejaVuSans-48"/>
       <use x="63.623047" xlink:href="#DejaVuSans-46"/>
       <use x="95.410156" xlink:href="#DejaVuSans-50"/>
       <use x="159.033203" xlink:href="#DejaVuSans-48"/>
      </g>
     </g>
    </g>
    <g id="text_17">
     <!-- Time [s] -->
     <g transform="translate(250.22375 370.1225)scale(0.16 -0.16)">
      <use xlink:href="#DejaVuSans-84"/>
      <use x="57.958984" xlink:href="#DejaVuSans-105"/>
      <use x="85.742188" xlink:href="#DejaVuSans-109"/>
      <use x="183.154297" xlink:href="#DejaVuSans-101"/>
      <use x="244.677734" xlink:href="#DejaVuSans-32"/>
      <use x="276.464844" xlink:href="#DejaVuSans-91"/>
      <use x="315.478516" xlink:href="#DejaVuSans-115"/>
      <use x="367.578125" xlink:href="#DejaVuSans-93"/>
     </g>
    </g>
   </g>
   <g id="matplotlib.axis_4">
    <g id="ytick_4">
     <g id="line2d_16">
      <g>
       <use style="stroke:#000000;stroke-width:0.8;" x="78.78" xlink:href="#me807260690" y="326.481818"/>
      </g>
     </g>
     <g id="text_18">
      <!-- 1 -->
      <defs>
       <path d="M 10.59375 35.5 
L 73.1875 35.5 
L 73.1875 27.203125 
L 10.59375 27.203125 
z
" id="DejaVuSans-8722"/>
      </defs>
      <g transform="translate(48.1925 332.560568)scale(0.16 -0.16)">
       <use xlink:href="#DejaVuSans-8722"/>
       <use x="83.789062" xlink:href="#DejaVuSans-49"/>
      </g>
     </g>
    </g>
    <g id="ytick_5">
     <g id="line2d_17">
      <g>
       <use style="stroke:#000000;stroke-width:0.8;" x="78.78" xlink:href="#me807260690" y="276.5"/>
      </g>
     </g>
     <g id="text_19">
      <!-- 0 -->
      <g transform="translate(61.6 282.57875)scale(0.16 -0.16)">
       <use xlink:href="#DejaVuSans-48"/>
      </g>
     </g>
    </g>
    <g id="ytick_6">
     <g id="line2d_18">
      <g>
       <use style="stroke:#000000;stroke-width:0.8;" x="78.78" xlink:href="#me807260690" y="226.518182"/>
      </g>
     </g>
     <g id="text_20">
      <!-- 1 -->
      <g transform="translate(61.6 232.596932)scale(0.16 -0.16)">
       <use xlink:href="#DejaVuSans-49"/>
      </g>
     </g>
    </g>
    <g id="text_21">
     <!-- Voltege (V) -->
     <g transform="translate(40.865 320.7875)rotate(-90)scale(0.16 -0.16)">
      <use xlink:href="#DejaVuSans-86"/>
      <use x="60.658203" xlink:href="#DejaVuSans-111"/>
      <use x="121.839844" xlink:href="#DejaVuSans-108"/>
      <use x="149.623047" xlink:href="#DejaVuSans-116"/>
      <use x="188.832031" xlink:href="#DejaVuSans-101"/>
      <use x="250.355469" xlink:href="#DejaVuSans-103"/>
      <use x="313.832031" xlink:href="#DejaVuSans-101"/>
      <use x="375.355469" xlink:href="#DejaVuSans-32"/>
      <use x="407.142578" xlink:href="#DejaVuSans-40"/>
      <use x="446.15625" xlink:href="#DejaVuSans-86"/>
      <use x="514.564453" xlink:href="#DejaVuSans-41"/>
     </g>
    </g>
   </g>
   <g id="line2d_19">
    <path clip-path="url(#p3c597a7743)" d="M 97.322727 253.562191 
L 98.806888 251.128038 
L 99.363448 250.297523 
L 99.548968 250.132498 
L 100.105528 249.121355 
L 100.291048 248.951542 
L 100.662088 248.33934 
L 100.847608 248.269771 
L 101.404168 247.02512 
L 101.589688 246.914037 
L 101.960728 246.22675 
L 102.702808 244.936996 
L 102.888328 244.655749 
L 103.073848 244.652478 
L 103.259368 244.534973 
L 104.001448 243.187419 
L 104.372489 243.217216 
L 104.558009 243.183673 
L 105.300089 242.535529 
L 105.485609 242.08308 
L 105.671129 242.136585 
L 105.856649 242.065202 
L 106.042169 241.771039 
L 106.227689 241.805704 
L 106.413209 241.327247 
L 106.784249 241.151916 
L 107.155289 240.982914 
L 108.268409 239.603393 
L 108.453929 239.523555 
L 109.010489 238.802328 
L 109.381529 238.800204 
L 109.938089 237.736796 
L 110.30913 237.840604 
L 110.68017 237.394552 
L 110.86569 237.290033 
L 111.05121 236.732812 
L 111.23673 236.607458 
L 111.42225 236.266099 
L 111.60777 236.268089 
L 111.79329 235.956116 
L 111.97881 235.925461 
L 112.34985 235.268986 
L 112.53537 235.317488 
L 113.27745 234.105938 
L 113.64849 233.781793 
L 114.01953 233.850804 
L 114.20505 233.582038 
L 114.39057 233.063442 
L 114.57609 232.921389 
L 114.94713 232.209337 
L 115.50369 231.648327 
L 115.874731 231.944766 
L 116.060251 231.932739 
L 116.245771 232.226306 
L 117.358891 231.055782 
L 118.657531 230.539952 
L 119.028571 229.769637 
L 119.214091 229.90154 
L 119.399611 229.729741 
L 119.585131 229.792341 
L 119.770651 229.258056 
L 120.141691 229.288616 
L 120.327211 229.13614 
L 120.512731 229.182161 
L 121.254811 227.990944 
L 121.625852 228.062706 
L 121.996892 227.31385 
L 122.182412 227.330705 
L 122.367932 227.171197 
L 122.553452 227.236817 
L 122.924492 226.724587 
L 123.110012 326.481818 
L 132.200493 326.481818 
L 132.386013 326.369222 
L 133.128094 323.401651 
L 133.684654 321.887368 
L 134.426734 319.46581 
L 134.612254 319.124404 
L 135.539854 316.19532 
L 135.725374 316.002577 
L 136.652974 313.518861 
L 136.838494 313.284191 
L 139.064735 306.988323 
L 139.435775 306.210209 
L 139.806815 305.320966 
L 140.177855 304.653641 
L 140.919935 303.236561 
L 141.290975 302.020707 
L 141.476495 301.963916 
L 141.847535 301.182303 
L 142.218575 300.223468 
L 142.589615 299.223143 
L 142.960655 298.065653 
L 143.146175 297.858147 
L 143.517215 296.796387 
L 143.888255 295.949897 
L 144.259296 294.841801 
L 144.630336 293.890448 
L 144.815856 293.100835 
L 145.186896 292.430276 
L 145.557936 291.138904 
L 145.743456 291.054401 
L 146.114496 290.12262 
L 146.300016 289.939287 
L 146.671056 289.09686 
L 147.227616 287.945652 
L 147.598656 286.915597 
L 148.340736 285.050421 
L 148.526256 285.027441 
L 150.195937 280.774292 
L 150.938017 279.459444 
L 151.123537 278.840946 
L 151.309057 278.665612 
L 151.494577 278.18303 
L 151.680097 278.027641 
L 152.236657 277.064525 
L 152.978737 276.196437 
L 153.164257 275.856912 
L 153.720817 273.47519 
L 154.462897 271.626262 
L 154.648417 271.472464 
L 156.874658 266.364676 
L 157.060178 266.269429 
L 158.173298 264.323055 
L 158.729858 263.606075 
L 158.915378 263.454253 
L 159.100898 263.082109 
L 159.471938 262.983307 
L 159.657458 262.652618 
L 160.028498 261.241059 
L 160.214018 261.270691 
L 161.698179 258.366139 
L 161.883699 258.402694 
L 162.625779 257.485781 
L 162.811299 257.260725 
L 163.367859 256.058562 
L 164.109939 255.062785 
L 164.480979 254.364757 
L 164.852019 253.711265 
L 165.223059 253.051647 
L 165.408579 252.691162 
L 165.594099 252.775601 
L 165.779619 252.461503 
L 165.965139 252.403621 
L 166.150659 251.979983 
L 166.336179 252.033539 
L 166.521699 251.76164 
L 166.70722 251.696546 
L 167.07826 251.227929 
L 167.4493 250.222575 
L 167.63482 250.137912 
L 167.82034 249.776044 
L 168.19138 249.684384 
L 168.3769 249.369561 
L 168.56242 249.440488 
L 170.60314 246.468931 
L 170.78866 246.560331 
L 171.1597 245.970666 
L 171.34522 245.919972 
L 172.0873 245.133022 
L 172.272821 245.06603 
L 172.829381 244.371344 
L 173.014901 244.512401 
L 173.385941 244.096921 
L 173.571461 243.921874 
L 173.942501 243.25378 
L 174.313541 242.546647 
L 174.499061 242.057104 
L 174.684581 241.991502 
L 174.870101 241.569361 
L 175.241141 241.456146 
L 175.426661 240.994795 
L 175.612181 240.880627 
L 175.983221 240.20769 
L 176.354261 239.492487 
L 176.910821 238.928654 
L 177.096341 238.53259 
L 177.281861 238.640611 
L 177.467381 238.463554 
L 177.838421 237.768162 
L 178.023942 237.834379 
L 178.394982 237.213129 
L 178.951542 236.994828 
L 179.137062 236.827281 
L 179.322582 236.437091 
L 180.064662 236.151488 
L 180.250182 236.283143 
L 180.621222 235.637223 
L 181.177782 234.77626 
L 181.363302 234.621927 
L 181.548822 234.634407 
L 181.919862 234.301305 
L 183.032982 232.732963 
L 183.218502 232.521163 
L 183.775063 231.525933 
L 184.146103 231.24978 
L 184.331623 231.288217 
L 185.259223 229.725828 
L 185.444743 229.649363 
L 185.630263 229.254505 
L 185.815783 229.368853 
L 186.001303 229.237655 
L 186.186823 229.303119 
L 186.928903 228.717369 
L 187.485463 228.127703 
L 187.856503 227.407455 
L 188.042023 227.45167 
L 188.413063 226.767549 
L 188.598583 326.481818 
L 197.689065 326.481818 
L 197.874585 326.351549 
L 198.987705 323.028312 
L 199.729785 320.79301 
L 199.915305 320.754065 
L 202.141546 315.09799 
L 202.327066 315.098444 
L 202.698106 314.285578 
L 203.254666 312.20932 
L 203.811226 310.918193 
L 204.367786 309.325072 
L 206.037466 305.564393 
L 206.965067 303.736115 
L 207.336107 302.530082 
L 207.521627 302.387771 
L 207.707147 301.711554 
L 207.892667 301.468276 
L 208.449227 299.998982 
L 208.820267 299.342491 
L 209.376827 298.503162 
L 209.747867 297.294507 
L 210.489947 295.673853 
L 210.860987 295.08711 
L 211.232027 294.052823 
L 211.603067 293.492855 
L 212.530668 291.950388 
L 213.272748 289.481834 
L 213.643788 288.527395 
L 214.014828 287.73459 
L 214.200348 287.718704 
L 214.385868 287.409045 
L 214.756908 286.38185 
L 215.127948 285.979687 
L 215.870028 284.285174 
L 216.426588 283.483941 
L 216.797628 283.077635 
L 217.354188 282.154981 
L 218.096269 280.531087 
L 218.281789 280.325891 
L 218.467309 280.341206 
L 220.136989 276.939339 
L 220.508029 276.444086 
L 221.250109 274.916213 
L 221.435629 274.6341 
L 221.806669 273.488034 
L 221.992189 273.014024 
L 222.177709 273.020045 
L 222.548749 272.352713 
L 222.919789 271.678811 
L 223.105309 271.235306 
L 223.29083 271.161025 
L 223.66187 270.626061 
L 224.21843 269.081272 
L 224.40395 269.120124 
L 224.58947 268.945962 
L 225.14603 267.933719 
L 225.33155 267.781296 
L 225.51707 267.310483 
L 225.88811 266.900385 
L 226.25915 266.219892 
L 227.55779 263.560255 
L 227.74331 263.447233 
L 228.29987 262.23468 
L 228.67091 261.24924 
L 228.85643 261.148763 
L 229.227471 260.610539 
L 229.969551 259.796514 
L 230.155071 259.451807 
L 230.340591 259.464276 
L 230.526111 259.652739 
L 230.711631 259.385891 
L 230.897151 259.348302 
L 231.082671 259.152218 
L 231.453711 259.220164 
L 232.195791 258.117326 
L 232.381311 257.950181 
L 233.308911 255.409966 
L 233.679951 254.953764 
L 234.050991 254.498202 
L 234.236511 254.060531 
L 234.422031 253.961954 
L 234.607552 253.692423 
L 234.793072 253.627321 
L 235.164112 252.974016 
L 235.535152 252.220825 
L 235.906192 251.853114 
L 236.648272 250.729168 
L 236.833792 250.296822 
L 237.019312 250.261826 
L 237.390352 249.851785 
L 237.575872 249.634505 
L 237.761392 249.595417 
L 237.946912 249.329454 
L 238.317952 249.191036 
L 238.688992 248.190648 
L 238.874512 247.777103 
L 239.060032 247.661387 
L 239.431072 247.015026 
L 239.616592 246.853571 
L 240.173152 245.785596 
L 240.544193 245.635184 
L 241.100753 245.035076 
L 243.141473 242.650369 
L 243.326993 242.56104 
L 243.512513 242.598403 
L 244.440113 241.270849 
L 244.625633 241.218638 
L 244.996673 240.84986 
L 245.182193 240.96033 
L 245.367713 240.714795 
L 245.553233 240.705715 
L 246.295314 239.378721 
L 246.480834 239.228261 
L 247.593954 237.419762 
L 247.779474 237.60587 
L 247.964994 237.224111 
L 248.150514 237.112385 
L 248.892594 236.096338 
L 249.263634 235.935894 
L 249.449154 235.772224 
L 249.820194 235.256851 
L 250.005714 235.074379 
L 250.191234 234.482279 
L 250.376754 234.693451 
L 251.860915 232.320085 
L 252.046435 232.215944 
L 252.231955 231.870618 
L 252.417475 231.91479 
L 252.974035 231.007984 
L 253.530595 230.64934 
L 253.716115 230.5186 
L 253.901635 230.564873 
L 255.200275 229.252114 
L 255.385795 229.190855 
L 255.756835 228.580317 
L 256.313395 227.891439 
L 256.498915 227.224221 
L 256.684435 227.136742 
L 257.055475 226.65303 
L 257.240995 326.481818 
L 266.331477 326.481818 
L 266.516997 326.287515 
L 267.444597 324.001596 
L 268.186677 322.792357 
L 268.372197 321.864997 
L 268.557717 321.637134 
L 270.412918 316.937684 
L 271.154998 315.803778 
L 271.897078 313.556374 
L 272.082598 313.420379 
L 273.010198 310.884552 
L 273.381238 309.824893 
L 275.236439 305.519002 
L 275.421959 305.269543 
L 275.792999 304.3625 
L 276.349559 303.392978 
L 278.019239 298.721457 
L 278.204759 298.486165 
L 278.575799 297.699612 
L 278.761319 297.330156 
L 279.317879 295.489914 
L 279.688919 294.793102 
L 279.874439 294.780231 
L 280.80204 293.261334 
L 281.17308 292.138198 
L 281.54412 291.358122 
L 282.84276 288.013545 
L 283.2138 287.329367 
L 283.77036 286.119482 
L 284.69796 283.62107 
L 284.88348 283.363494 
L 285.069 282.66281 
L 285.44004 282.314953 
L 285.625561 281.525988 
L 285.996601 280.875752 
L 286.553161 279.826251 
L 288.779401 275.572952 
L 288.964921 275.308422 
L 289.150441 275.407919 
L 289.892521 273.8562 
L 290.078041 273.63153 
L 290.449081 273.015625 
L 290.634601 272.744877 
L 291.005641 271.745459 
L 291.376682 271.066134 
L 292.118762 269.246316 
L 293.046362 267.738289 
L 293.231882 267.538907 
L 293.417402 267.015234 
L 293.788442 266.667661 
L 294.716042 265.034703 
L 296.756762 261.900365 
L 296.942283 261.976872 
L 297.127803 261.914825 
L 297.498843 261.236944 
L 298.240923 260.354666 
L 298.426443 259.93196 
L 298.611963 259.81403 
L 298.797483 259.558528 
L 298.983003 258.952135 
L 299.354043 258.42076 
L 299.725083 257.732528 
L 299.910603 257.712231 
L 300.838203 256.379917 
L 301.209243 256.024283 
L 301.580283 255.138552 
L 301.765803 254.891252 
L 301.951323 254.438554 
L 302.136843 254.293393 
L 302.507883 253.553522 
L 302.693404 253.587641 
L 303.064444 253.164907 
L 303.249964 252.796061 
L 303.435484 252.705196 
L 303.806524 252.010216 
L 303.992044 251.89313 
L 304.177564 251.590043 
L 304.363084 251.561721 
L 304.548604 251.673055 
L 305.105164 250.241723 
L 305.290684 250.054169 
L 305.847244 248.870829 
L 306.774844 248.139784 
L 307.702444 246.333097 
L 307.887964 245.824092 
L 308.444525 245.481267 
L 308.815565 244.585292 
L 309.001085 244.380123 
L 310.114205 241.696907 
L 310.485245 241.34952 
L 310.670765 240.968024 
L 311.227325 240.990292 
L 312.340445 239.627875 
L 312.711485 239.34073 
L 313.639085 237.982676 
L 314.195646 237.683852 
L 314.752206 236.872242 
L 315.123246 236.425293 
L 315.494286 235.815945 
L 315.865326 235.265405 
L 316.050846 235.281425 
L 317.163966 234.427689 
L 317.349486 234.411642 
L 319.204686 231.945822 
L 319.390206 231.467332 
L 319.575726 231.406533 
L 319.946767 230.787596 
L 320.132287 230.606564 
L 320.317807 230.594352 
L 320.503327 230.204364 
L 320.688847 230.375762 
L 321.801967 229.244197 
L 322.173007 228.334054 
L 322.358527 228.284679 
L 322.729567 227.767075 
L 323.100607 226.793587 
L 323.286127 326.481818 
L 332.376609 326.481818 
L 332.562129 326.283386 
L 333.489729 324.114204 
L 333.860769 323.491897 
L 334.417329 321.505949 
L 334.602849 321.085548 
L 334.973889 319.562369 
L 335.159409 319.222707 
L 336.087009 316.014682 
L 336.272529 315.642197 
L 336.64357 314.454184 
L 336.82909 314.262632 
L 338.12773 311.086257 
L 338.31325 310.98741 
L 339.24085 308.300512 
L 339.61189 307.481371 
L 339.79741 307.170549 
L 340.35397 305.358456 
L 340.72501 305.214286 
L 340.91053 304.871172 
L 341.28157 303.490215 
L 341.46709 303.15602 
L 341.83813 301.947222 
L 342.02365 301.74991 
L 342.20917 301.377745 
L 342.394691 301.259411 
L 343.507811 298.218164 
L 344.249891 296.370651 
L 344.620931 295.765187 
L 344.806451 294.915071 
L 344.991971 294.690255 
L 345.363011 293.810937 
L 345.734051 293.22638 
L 346.105091 292.329593 
L 346.847171 290.874603 
L 347.218211 289.790066 
L 347.403731 289.790579 
L 347.589251 289.550346 
L 347.960292 288.422505 
L 348.331332 287.937007 
L 348.702372 286.948307 
L 349.258932 285.717026 
L 349.444452 285.367564 
L 350.001012 283.824973 
L 350.928612 281.82961 
L 351.299652 281.336057 
L 351.670692 280.430899 
L 352.041732 279.638358 
L 352.227252 279.0502 
L 352.598292 278.665493 
L 353.154852 277.68224 
L 353.340372 277.645101 
L 353.525892 277.46231 
L 354.453493 275.739186 
L 354.639013 275.775869 
L 354.824533 275.309234 
L 355.010053 275.177556 
L 355.381093 274.183354 
L 355.566613 273.884372 
L 356.123173 272.187132 
L 356.308693 272.020805 
L 356.679733 271.285484 
L 357.050773 271.064792 
L 357.236293 270.658666 
L 357.792853 268.867987 
L 358.349413 268.122871 
L 358.534933 267.538549 
L 358.720453 267.499295 
L 359.091493 266.509617 
L 359.462534 265.833282 
L 360.761174 263.05889 
L 361.688774 261.528358 
L 362.245334 260.56605 
L 362.430854 260.410774 
L 362.616374 259.913495 
L 362.801894 259.876401 
L 363.358454 258.845216 
L 363.729494 258.345026 
L 364.100534 257.418108 
L 364.657094 257.000254 
L 364.842614 256.810104 
L 365.399175 255.740639 
L 365.584695 255.619066 
L 366.326775 254.260652 
L 366.697815 253.931704 
L 367.254375 252.916395 
L 367.439895 252.835361 
L 367.810935 252.317848 
L 368.553015 251.001143 
L 368.738535 251.084654 
L 369.851655 249.800689 
L 370.593736 247.703312 
L 370.779256 247.650231 
L 371.150296 246.893171 
L 371.521336 246.703602 
L 371.892376 246.449763 
L 372.263416 245.93527 
L 372.448936 245.7811 
L 372.634456 245.476866 
L 373.005496 244.606084 
L 373.191016 244.445295 
L 373.933096 243.353328 
L 375.417256 241.268253 
L 375.602776 241.505029 
L 376.159336 240.61642 
L 376.530377 240.115143 
L 376.715897 240.029491 
L 377.829017 238.002995 
L 378.571097 237.473721 
L 378.756617 237.33881 
L 379.127657 236.822075 
L 379.313177 236.587501 
L 379.498697 236.559437 
L 380.426297 234.89769 
L 380.982857 234.05362 
L 381.168377 234.147568 
L 381.539417 233.553492 
L 381.724937 233.536172 
L 381.910458 233.273825 
L 382.095978 233.389433 
L 382.467018 232.835606 
L 382.838058 232.662724 
L 383.209098 231.919655 
L 383.394618 231.986832 
L 384.693258 229.997811 
L 384.878778 229.662004 
L 385.064298 229.587871 
L 385.249818 229.290374 
L 385.435338 229.238669 
L 385.991898 228.585437 
L 386.177418 228.163921 
L 386.362938 228.036326 
L 386.548458 227.469897 
L 387.105018 227.023125 
L 387.290538 226.628583 
L 387.476058 326.481818 
L 396.56654 326.481818 
L 401.575581 314.353704 
L 401.761101 314.256688 
L 402.317661 312.640735 
L 402.688701 311.990986 
L 403.245261 310.635425 
L 405.471502 305.052736 
L 405.842542 304.381576 
L 408.068782 298.102405 
L 410.109502 293.819969 
L 410.480543 292.842866 
L 410.666063 292.760459 
L 410.851583 292.225167 
L 411.037103 292.079308 
L 411.408143 290.851117 
L 411.593663 290.659962 
L 411.964703 289.542169 
L 412.335743 288.950773 
L 412.706783 288.127388 
L 412.892303 288.059768 
L 413.634383 287.240637 
L 414.005423 286.054932 
L 415.118543 284.349455 
L 415.675103 283.191114 
L 417.159264 280.028818 
L 417.530304 279.630547 
L 418.272384 278.466028 
L 418.457904 277.569144 
L 418.643424 277.269905 
L 419.014464 276.989466 
L 419.756544 276.017681 
L 420.127584 275.702781 
L 421.797265 272.506864 
L 422.539345 270.775945 
L 422.724865 270.767942 
L 422.910385 270.566506 
L 423.281425 269.555792 
L 423.466945 269.450576 
L 424.580065 266.773752 
L 426.806305 263.143835 
L 427.177345 262.947183 
L 427.362866 262.834918 
L 427.548386 262.448286 
L 427.733906 262.534679 
L 427.919426 262.360533 
L 428.475986 261.360234 
L 428.661506 261.282264 
L 429.218066 259.801337 
L 429.589106 259.147693 
L 430.145666 258.247039 
L 430.331186 258.400017 
L 430.516706 258.152423 
L 430.702226 258.285619 
L 431.629826 256.558747 
L 432.186386 255.340188 
L 432.742946 254.575032 
L 432.928467 254.57556 
L 433.856067 252.997188 
L 434.227107 252.612611 
L 434.412627 251.958857 
L 434.598147 251.884422 
L 434.969187 251.354492 
L 435.340227 250.85284 
L 435.525747 250.53562 
L 436.082307 248.867085 
L 436.267827 248.508861 
L 436.453347 248.473446 
L 436.824387 248.170124 
L 437.380947 247.873767 
L 437.751987 247.231756 
L 439.050628 245.556007 
L 439.236148 245.047648 
L 439.421668 245.094412 
L 439.607188 244.96065 
L 439.792708 244.612723 
L 439.978228 244.598537 
L 440.349268 243.678218 
L 440.720308 243.656628 
L 441.276868 243.067981 
L 441.647908 242.112629 
L 442.018948 241.559974 
L 442.204468 241.218839 
L 442.389988 241.16016 
L 442.761028 241.386898 
L 443.132068 241.086589 
L 444.059668 239.310348 
L 444.245189 239.403946 
L 444.616229 238.725446 
L 445.543829 238.490109 
L 446.100389 237.632666 
L 446.471429 237.423755 
L 446.842469 236.777238 
L 447.213509 236.50744 
L 447.584549 236.005739 
L 447.770069 236.036008 
L 448.512149 235.383596 
L 448.697669 235.470895 
L 448.883189 235.245176 
L 449.254229 235.274848 
L 449.625269 234.842969 
L 450.18183 234.432942 
L 450.73839 233.840688 
L 450.92391 233.511407 
L 451.10943 233.60377 
L 451.48047 233.39384 
L 451.85151 232.661661 
L 452.22255 232.226455 
L 452.59359 231.987724 
L 452.77911 231.733932 
L 452.96463 231.673413 
L 453.15015 231.357689 
L 453.33567 230.73043 
L 454.81983 229.051377 
L 455.00535 229.212263 
L 455.37639 228.674934 
L 455.561911 228.641935 
L 456.675031 226.965268 
L 457.046071 227.200772 
L 457.417111 226.737523 
L 457.602631 226.618923 
L 457.788151 326.481818 
L 466.878632 326.481818 
L 467.620713 324.510281 
L 467.991753 322.956226 
L 468.177273 322.817349 
L 468.177273 322.817349 
" style="fill:none;stroke:#1f77b4;stroke-linecap:square;stroke-width:1.5;"/>
   </g>
   <g id="line2d_20">
    <path clip-path="url(#p3c597a7743)" d="M 97.322727 276.5 
L 122.924492 276.5 
L 123.110012 226.518182 
L 123.295532 276.5 
L 188.413063 276.5 
L 188.598583 226.518182 
L 188.784103 276.5 
L 257.055475 276.5 
L 257.240995 226.518182 
L 257.426516 276.5 
L 323.100607 276.5 
L 323.286127 226.518182 
L 323.471647 276.5 
L 387.290538 276.5 
L 387.476058 226.518182 
L 387.661579 276.5 
L 457.602631 276.5 
L 457.788151 226.518182 
L 457.973671 276.5 
L 468.177273 276.5 
L 468.177273 276.5 
" style="fill:none;stroke:#000000;stroke-linecap:square;stroke-width:1.5;"/>
   </g>
   <g id="patch_8">
    <path d="M 78.78 331.48 
L 78.78 221.52 
" style="fill:none;stroke:#000000;stroke-linecap:square;stroke-linejoin:miter;stroke-width:0.8;"/>
   </g>
   <g id="patch_9">
    <path d="M 486.72 331.48 
L 486.72 221.52 
" style="fill:none;stroke:#000000;stroke-linecap:square;stroke-linejoin:miter;stroke-width:0.8;"/>
   </g>
   <g id="patch_10">
    <path d="M 78.78 331.48 
L 486.72 331.48 
" style="fill:none;stroke:#000000;stroke-linecap:square;stroke-linejoin:miter;stroke-width:0.8;"/>
   </g>
   <g id="patch_11">
    <path d="M 78.78 221.52 
L 486.72 221.52 
" style="fill:none;stroke:#000000;stroke-linecap:square;stroke-linejoin:miter;stroke-width:0.8;"/>
   </g>
   <g id="text_22">
    <!-- Input: 0.4 -->
    <defs>
     <path d="M 37.796875 64.3125 
L 12.890625 25.390625 
L 37.796875 25.390625 
z
M 35.203125 72.90625 
L 47.609375 72.90625 
L 47.609375 25.390625 
L 58.015625 25.390625 
L 58.015625 17.1875 
L 47.609375 17.1875 
L 47.609375 0 
L 37.796875 0 
L 37.796875 17.1875 
L 4.890625 17.1875 
L 4.890625 26.703125 
z
" id="DejaVuSans-52"/>
    </defs>
    <g transform="translate(244.075 215.52)scale(0.16 -0.16)">
     <use xlink:href="#DejaVuSans-73"/>
     <use x="29.492188" xlink:href="#DejaVuSans-110"/>
     <use x="92.871094" xlink:href="#DejaVuSans-112"/>
     <use x="156.347656" xlink:href="#DejaVuSans-117"/>
     <use x="219.726562" xlink:href="#DejaVuSans-116"/>
     <use x="258.935547" xlink:href="#DejaVuSans-58"/>
     <use x="292.626953" xlink:href="#DejaVuSans-32"/>
     <use x="324.414062" xlink:href="#DejaVuSans-48"/>
     <use x="388.037109" xlink:href="#DejaVuSans-46"/>
     <use x="419.824219" xlink:href="#DejaVuSans-52"/>
    </g>
   </g>
  </g>
  <g id="axes_3">
   <g id="patch_12">
    <path d="M 78.78 517.72 
L 486.72 517.72 
L 486.72 407.76 
L 78.78 407.76 
z
" style="fill:#ffffff;"/>
   </g>
   <g id="matplotlib.axis_5">
    <g id="xtick_11">
     <g id="line2d_21">
      <g>
       <use style="stroke:#000000;stroke-width:0.8;" x="97.137207" xlink:href="#m5562135028" y="517.72"/>
      </g>
     </g>
     <g id="text_23">
      <!-- 0.00 -->
      <g transform="translate(79.324707 536.8775)scale(0.16 -0.16)">
       <use xlink:href="#DejaVuSans-48"/>
       <use x="63.623047" xlink:href="#DejaVuSans-46"/>
       <use x="95.410156" xlink:href="#DejaVuSans-48"/>
       <use x="159.033203" xlink:href="#DejaVuSans-48"/>
      </g>
     </g>
    </g>
    <g id="xtick_12">
     <g id="line2d_22">
      <g>
       <use style="stroke:#000000;stroke-width:0.8;" x="189.897224" xlink:href="#m5562135028" y="517.72"/>
      </g>
     </g>
     <g id="text_24">
      <!-- 0.05 -->
      <g transform="translate(172.084724 536.8775)scale(0.16 -0.16)">
       <use xlink:href="#DejaVuSans-48"/>
       <use x="63.623047" xlink:href="#DejaVuSans-46"/>
       <use x="95.410156" xlink:href="#DejaVuSans-48"/>
       <use x="159.033203" xlink:href="#DejaVuSans-53"/>
      </g>
     </g>
    </g>
    <g id="xtick_13">
     <g id="line2d_23">
      <g>
       <use style="stroke:#000000;stroke-width:0.8;" x="282.65724" xlink:href="#m5562135028" y="517.72"/>
      </g>
     </g>
     <g id="text_25">
      <!-- 0.10 -->
      <g transform="translate(264.84474 536.8775)scale(0.16 -0.16)">
       <use xlink:href="#DejaVuSans-48"/>
       <use x="63.623047" xlink:href="#DejaVuSans-46"/>
       <use x="95.410156" xlink:href="#DejaVuSans-49"/>
       <use x="159.033203" xlink:href="#DejaVuSans-48"/>
      </g>
     </g>
    </g>
    <g id="xtick_14">
     <g id="line2d_24">
      <g>
       <use style="stroke:#000000;stroke-width:0.8;" x="375.417256" xlink:href="#m5562135028" y="517.72"/>
      </g>
     </g>
     <g id="text_26">
      <!-- 0.15 -->
      <g transform="translate(357.604756 536.8775)scale(0.16 -0.16)">
       <use xlink:href="#DejaVuSans-48"/>
       <use x="63.623047" xlink:href="#DejaVuSans-46"/>
       <use x="95.410156" xlink:href="#DejaVuSans-49"/>
       <use x="159.033203" xlink:href="#DejaVuSans-53"/>
      </g>
     </g>
    </g>
    <g id="xtick_15">
     <g id="line2d_25">
      <g>
       <use style="stroke:#000000;stroke-width:0.8;" x="468.177273" xlink:href="#m5562135028" y="517.72"/>
      </g>
     </g>
     <g id="text_27">
      <!-- 0.20 -->
      <g transform="translate(450.364773 536.8775)scale(0.16 -0.16)">
       <use xlink:href="#DejaVuSans-48"/>
       <use x="63.623047" xlink:href="#DejaVuSans-46"/>
       <use x="95.410156" xlink:href="#DejaVuSans-50"/>
       <use x="159.033203" xlink:href="#DejaVuSans-48"/>
      </g>
     </g>
    </g>
    <g id="text_28">
     <!-- Time [s] -->
     <g transform="translate(250.22375 556.3625)scale(0.16 -0.16)">
      <use xlink:href="#DejaVuSans-84"/>
      <use x="57.958984" xlink:href="#DejaVuSans-105"/>
      <use x="85.742188" xlink:href="#DejaVuSans-109"/>
      <use x="183.154297" xlink:href="#DejaVuSans-101"/>
      <use x="244.677734" xlink:href="#DejaVuSans-32"/>
      <use x="276.464844" xlink:href="#DejaVuSans-91"/>
      <use x="315.478516" xlink:href="#DejaVuSans-115"/>
      <use x="367.578125" xlink:href="#DejaVuSans-93"/>
     </g>
    </g>
   </g>
   <g id="matplotlib.axis_6">
    <g id="ytick_7">
     <g id="line2d_26">
      <g>
       <use style="stroke:#000000;stroke-width:0.8;" x="78.78" xlink:href="#me807260690" y="512.721818"/>
      </g>
     </g>
     <g id="text_29">
      <!-- 1 -->
      <g transform="translate(48.1925 518.800568)scale(0.16 -0.16)">
       <use xlink:href="#DejaVuSans-8722"/>
       <use x="83.789062" xlink:href="#DejaVuSans-49"/>
      </g>
     </g>
    </g>
    <g id="ytick_8">
     <g id="line2d_27">
      <g>
       <use style="stroke:#000000;stroke-width:0.8;" x="78.78" xlink:href="#me807260690" y="462.74"/>
      </g>
     </g>
     <g id="text_30">
      <!-- 0 -->
      <g transform="translate(61.6 468.81875)scale(0.16 -0.16)">
       <use xlink:href="#DejaVuSans-48"/>
      </g>
     </g>
    </g>
    <g id="ytick_9">
     <g id="line2d_28">
      <g>
       <use style="stroke:#000000;stroke-width:0.8;" x="78.78" xlink:href="#me807260690" y="412.758182"/>
      </g>
     </g>
     <g id="text_31">
      <!-- 1 -->
      <g transform="translate(61.6 418.836932)scale(0.16 -0.16)">
       <use xlink:href="#DejaVuSans-49"/>
      </g>
     </g>
    </g>
    <g id="text_32">
     <!-- Voltege (V) -->
     <g transform="translate(40.865 507.0275)rotate(-90)scale(0.16 -0.16)">
      <use xlink:href="#DejaVuSans-86"/>
      <use x="60.658203" xlink:href="#DejaVuSans-111"/>
      <use x="121.839844" xlink:href="#DejaVuSans-108"/>
      <use x="149.623047" xlink:href="#DejaVuSans-116"/>
      <use x="188.832031" xlink:href="#DejaVuSans-101"/>
      <use x="250.355469" xlink:href="#DejaVuSans-103"/>
      <use x="313.832031" xlink:href="#DejaVuSans-101"/>
      <use x="375.355469" xlink:href="#DejaVuSans-32"/>
      <use x="407.142578" xlink:href="#DejaVuSans-40"/>
      <use x="446.15625" xlink:href="#DejaVuSans-86"/>
      <use x="514.564453" xlink:href="#DejaVuSans-41"/>
     </g>
    </g>
   </g>
   <g id="line2d_29">
    <path clip-path="url(#pc2b153ac0c)" d="M 97.322727 439.403002 
L 99.363448 431.833967 
L 99.734488 430.505735 
L 100.476568 427.776938 
L 101.033128 425.87535 
L 101.404168 424.412164 
L 101.775208 423.28133 
L 102.888328 419.119191 
L 103.259368 418.279614 
L 104.001448 415.508757 
L 104.558009 414.449918 
L 105.114569 412.891943 
L 105.300089 512.721818 
L 114.39057 512.721818 
L 114.57609 512.10627 
L 115.13265 509.08656 
L 115.689211 506.831132 
L 116.431291 504.223956 
L 118.472011 495.316281 
L 118.657531 494.670802 
L 119.028571 492.585892 
L 119.399611 491.240137 
L 119.585131 490.653064 
L 119.956171 488.866195 
L 120.512731 486.826808 
L 121.254811 483.101045 
L 121.625852 481.918151 
L 122.182412 479.31978 
L 128.675613 452.584875 
L 129.232173 450.640531 
L 129.603213 449.360993 
L 130.159773 446.843321 
L 132.386013 439.014952 
L 133.128094 435.433323 
L 133.684654 433.463839 
L 134.426734 430.442385 
L 134.797774 429.214411 
L 135.168814 427.99823 
L 135.725374 425.948389 
L 136.652974 422.743001 
L 136.838494 422.365434 
L 139.250255 413.907796 
L 139.435775 413.340116 
L 139.621295 512.721818 
L 148.711776 512.721818 
L 148.897296 512.533673 
L 149.639377 507.953806 
L 150.195937 505.375514 
L 152.422177 495.266229 
L 152.793217 493.837154 
L 153.164257 492.235743 
L 153.906337 487.358336 
L 154.462897 484.543415 
L 154.833937 482.986791 
L 155.947058 477.59038 
L 156.689138 473.863657 
L 158.358818 467.040076 
L 159.842978 461.400847 
L 160.028498 460.204188 
L 160.214018 459.792292 
L 161.698179 453.407996 
L 162.069219 452.393842 
L 162.440259 451.164477 
L 164.480979 443.127002 
L 165.223059 440.191683 
L 165.594099 439.112607 
L 166.150659 437.122438 
L 166.336179 436.780458 
L 168.00586 430.938037 
L 168.19138 430.547614 
L 168.74794 428.87659 
L 172.0873 418.249963 
L 172.643861 416.738285 
L 172.829381 416.073295 
L 173.014901 415.863544 
L 173.942501 412.868309 
L 174.128021 512.721818 
L 183.218502 512.721818 
L 186.001303 499.18979 
L 186.557863 497.108982 
L 187.670983 491.709347 
L 188.598583 487.077141 
L 189.526184 482.97568 
L 189.711704 482.537744 
L 191.195864 474.603401 
L 191.566904 472.382064 
L 191.937944 470.945862 
L 193.236584 465.174855 
L 194.535224 460.007814 
L 195.833865 455.422637 
L 196.575945 451.962987 
L 197.689065 448.405386 
L 198.431145 445.735385 
L 199.729785 440.420753 
L 199.915305 440.20429 
L 202.141546 432.463523 
L 202.327066 432.293988 
L 202.698106 431.142838 
L 203.254666 428.563363 
L 203.811226 426.774028 
L 204.367786 424.687655 
L 206.222986 418.976991 
L 206.779547 417.483548 
L 208.078187 413.109082 
L 208.263707 512.721818 
L 217.354188 512.721818 
L 217.539708 512.414168 
L 218.096269 509.611924 
L 219.209389 504.685236 
L 220.136989 500.159056 
L 220.879069 496.845214 
L 223.105309 486.304381 
L 223.47635 485.00243 
L 224.03291 482.274537 
L 224.40395 480.757728 
L 224.96051 478.615349 
L 225.51707 476.069886 
L 226.07363 473.751684 
L 226.63019 471.447563 
L 228.11435 464.951256 
L 229.041951 460.828675 
L 230.340591 456.395726 
L 230.526111 456.149421 
L 231.082671 454.353259 
L 231.453711 453.564614 
L 234.607552 440.981873 
L 234.978592 439.821844 
L 236.091712 435.688401 
L 238.132432 429.175586 
L 238.317952 428.676456 
L 238.874512 426.136146 
L 239.060032 425.647468 
L 239.431072 424.2589 
L 239.987632 422.379948 
L 240.358673 421.162208 
L 241.100753 418.99958 
L 242.955953 413.293848 
L 243.141473 512.721818 
L 252.417475 512.697515 
L 253.345075 508.027569 
L 256.313395 494.1727 
L 256.684435 492.08912 
L 257.612036 487.965169 
L 258.168596 485.831413 
L 259.281716 480.500506 
L 259.652756 479.03759 
L 261.136916 472.685298 
L 261.322436 472.178997 
L 261.693476 470.532101 
L 262.621076 466.101538 
L 262.992117 464.11148 
L 263.177637 463.726599 
L 263.734197 461.353543 
L 264.105237 459.476016 
L 267.444597 446.670652 
L 268.186677 444.714598 
L 268.372197 443.602084 
L 268.557717 443.189684 
L 270.412918 436.678304 
L 271.154998 434.836368 
L 271.897078 431.890314 
L 272.082598 431.581106 
L 275.236439 420.821767 
L 275.421959 420.409183 
L 275.792999 419.177518 
L 276.720599 416.492496 
L 277.648199 413.008675 
L 277.833719 512.721818 
L 286.924201 512.721818 
L 287.109721 512.277647 
L 287.666281 509.135807 
L 288.964921 503.221145 
L 289.150441 502.782776 
L 290.263561 497.402125 
L 290.820121 494.791479 
L 292.860842 484.87562 
L 293.231882 483.523166 
L 293.602922 481.874449 
L 294.345002 478.597902 
L 296.014682 471.720108 
L 296.942283 468.306487 
L 297.127803 467.778397 
L 297.684363 465.50253 
L 298.240923 463.454371 
L 299.168523 459.591023 
L 300.096123 456.049863 
L 301.209243 452.0183 
L 301.951323 448.714578 
L 302.322363 447.22419 
L 304.177564 440.847414 
L 304.548604 440.113327 
L 305.290684 436.876496 
L 306.032764 433.949951 
L 306.960364 431.053272 
L 307.887964 427.150516 
L 308.444525 425.662996 
L 308.815565 424.010225 
L 309.186605 422.600432 
L 310.114205 418.512439 
L 311.041805 415.83759 
L 311.227325 415.617145 
L 311.969405 413.089758 
L 312.154925 512.721818 
L 321.245407 512.721818 
L 321.430927 512.415996 
L 321.801967 510.492778 
L 322.173007 508.154302 
L 322.729567 505.462598 
L 324.213727 496.759078 
L 326.439968 485.996869 
L 326.625488 485.560359 
L 327.924128 479.986619 
L 328.480688 476.793124 
L 330.892448 467.236452 
L 331.263489 465.927305 
L 331.820049 463.640196 
L 332.005569 463.32002 
L 333.118689 458.840618 
L 333.675249 457.082948 
L 333.860769 456.51053 
L 334.417329 453.860559 
L 334.788369 452.213035 
L 335.530449 448.92529 
L 335.901489 447.439343 
L 336.458049 444.97738 
L 337.01461 443.130797 
L 337.38565 441.664479 
L 338.68429 437.367473 
L 339.24085 435.170088 
L 339.61189 433.948384 
L 339.98293 432.636768 
L 340.35397 431.02835 
L 340.72501 430.489588 
L 340.91053 429.950163 
L 341.28157 428.178541 
L 341.46709 427.649987 
L 341.83813 426.054411 
L 342.394691 424.791246 
L 343.693331 419.925372 
L 344.620931 417.052288 
L 344.991971 415.611886 
L 345.363011 414.369526 
L 345.734051 413.42434 
L 345.919571 512.721818 
L 355.010053 512.721818 
L 355.195573 512.510978 
L 356.865253 504.04362 
L 357.236293 502.383905 
L 357.792853 498.947054 
L 358.720453 494.871062 
L 359.091493 492.811034 
L 360.019094 488.371787 
L 362.059814 478.794001 
L 363.729494 471.852128 
L 364.100534 469.946985 
L 364.842614 467.401986 
L 366.141255 461.821836 
L 367.625415 456.021228 
L 367.996455 454.638648 
L 368.553015 452.286152 
L 368.738535 451.920407 
L 370.037175 447.000698 
L 370.593736 444.127922 
L 370.779256 443.64176 
L 371.335816 441.536809 
L 372.448936 437.939182 
L 375.231736 427.530468 
L 375.417256 426.888911 
L 375.602776 426.72856 
L 376.344857 423.942287 
L 377.272457 420.897504 
L 377.643497 419.087849 
L 379.684217 412.990943 
L 379.869737 512.721818 
L 388.960219 512.721818 
L 389.331259 511.192372 
L 389.887819 508.25376 
L 391.000939 503.623292 
L 391.371979 501.319212 
L 391.743019 499.844299 
L 392.856139 494.92996 
L 393.041659 494.451408 
L 393.96926 489.935104 
L 394.3403 488.163834 
L 396.1955 479.503278 
L 397.67966 473.734606 
L 398.23622 471.175197 
L 398.978301 468.431417 
L 399.349341 466.946288 
L 399.720381 465.71085 
L 400.091421 464.380214 
L 401.390061 459.217078 
L 402.874221 453.863469 
L 403.430781 451.830709 
L 404.358381 448.117492 
L 404.914942 445.803161 
L 406.028062 442.086389 
L 407.326702 436.949562 
L 408.068782 433.755245 
L 411.593663 422.055652 
L 411.964703 420.505221 
L 412.521263 418.774321 
L 412.892303 417.953764 
L 413.634383 416.292125 
L 414.005423 414.689358 
L 414.561983 413.363164 
L 414.747503 512.721818 
L 424.023505 512.661974 
L 424.580065 509.832298 
L 426.991825 498.554388 
L 427.362866 497.27205 
L 427.733906 495.854516 
L 428.290466 493.421946 
L 429.960146 485.399741 
L 430.331186 484.103919 
L 432.000866 476.694516 
L 432.742946 473.518262 
L 432.928467 473.010771 
L 434.783667 465.003388 
L 435.525747 462.033553 
L 436.267827 458.083455 
L 437.009907 455.722883 
L 437.566467 453.748049 
L 439.792708 445.393629 
L 439.978228 444.931865 
L 440.349268 443.120854 
L 441.091348 441.059557 
L 442.575508 435.4658 
L 442.761028 435.182545 
L 443.503108 432.547988 
L 444.430709 428.999031 
L 444.987269 427.342043 
L 445.729349 425.357377 
L 448.512149 416.660919 
L 448.697669 416.365544 
L 449.068709 415.439994 
L 449.439749 414.39383 
L 449.99631 412.855646 
L 450.18183 512.721818 
L 459.272311 512.721818 
L 459.828871 510.154899 
L 460.941991 504.558315 
L 461.498552 502.165613 
L 461.869592 500.32883 
L 466.136552 480.772059 
L 466.878632 477.818882 
L 468.177273 472.031373 
L 468.177273 472.031373 
" style="fill:none;stroke:#1f77b4;stroke-linecap:square;stroke-width:1.5;"/>
   </g>
   <g id="line2d_30">
    <path clip-path="url(#pc2b153ac0c)" d="M 97.322727 462.74 
L 105.114569 462.74 
L 105.300089 412.758182 
L 105.485609 462.74 
L 139.435775 462.74 
L 139.621295 412.758182 
L 139.806815 462.74 
L 173.942501 462.74 
L 174.128021 412.758182 
L 174.313541 462.74 
L 208.078187 462.74 
L 208.263707 412.758182 
L 208.449227 462.74 
L 242.955953 462.74 
L 243.141473 412.758182 
L 243.326993 462.74 
L 277.648199 462.74 
L 277.833719 412.758182 
L 278.019239 462.74 
L 311.969405 462.74 
L 312.154925 412.758182 
L 312.340445 462.74 
L 345.734051 462.74 
L 345.919571 412.758182 
L 346.105091 462.74 
L 379.684217 462.74 
L 379.869737 412.758182 
L 380.055257 462.74 
L 414.561983 462.74 
L 414.747503 412.758182 
L 414.933023 462.74 
L 449.99631 462.74 
L 450.18183 412.758182 
L 450.36735 462.74 
L 468.177273 462.74 
L 468.177273 462.74 
" style="fill:none;stroke:#000000;stroke-linecap:square;stroke-width:1.5;"/>
   </g>
   <g id="patch_13">
    <path d="M 78.78 517.72 
L 78.78 407.76 
" style="fill:none;stroke:#000000;stroke-linecap:square;stroke-linejoin:miter;stroke-width:0.8;"/>
   </g>
   <g id="patch_14">
    <path d="M 486.72 517.72 
L 486.72 407.76 
" style="fill:none;stroke:#000000;stroke-linecap:square;stroke-linejoin:miter;stroke-width:0.8;"/>
   </g>
   <g id="patch_15">
    <path d="M 78.78 517.72 
L 486.72 517.72 
" style="fill:none;stroke:#000000;stroke-linecap:square;stroke-linejoin:miter;stroke-width:0.8;"/>
   </g>
   <g id="patch_16">
    <path d="M 78.78 407.76 
L 486.72 407.76 
" style="fill:none;stroke:#000000;stroke-linecap:square;stroke-linejoin:miter;stroke-width:0.8;"/>
   </g>
   <g id="text_33">
    <!-- Input: 1.0 -->
    <g transform="translate(244.075 401.76)scale(0.16 -0.16)">
     <use xlink:href="#DejaVuSans-73"/>
     <use x="29.492188" xlink:href="#DejaVuSans-110"/>
     <use x="92.871094" xlink:href="#DejaVuSans-112"/>
     <use x="156.347656" xlink:href="#DejaVuSans-117"/>
     <use x="219.726562" xlink:href="#DejaVuSans-116"/>
     <use x="258.935547" xlink:href="#DejaVuSans-58"/>
     <use x="292.626953" xlink:href="#DejaVuSans-32"/>
     <use x="324.414062" xlink:href="#DejaVuSans-49"/>
     <use x="388.037109" xlink:href="#DejaVuSans-46"/>
     <use x="419.824219" xlink:href="#DejaVuSans-48"/>
    </g>
   </g>
  </g>
 </g>
 <defs>
  <clipPath id="p73b7640126">
   <rect height="109.96" width="407.94" x="78.78" y="35.28"/>
  </clipPath>
  <clipPath id="p3c597a7743">
   <rect height="109.96" width="407.94" x="78.78" y="221.52"/>
  </clipPath>
  <clipPath id="pc2b153ac0c">
   <rect height="109.96" width="407.94" x="78.78" y="407.76"/>
  </clipPath>
 </defs>
</svg>
