<?xml version="1.0" encoding="utf-8" standalone="no"?>
<!DOCTYPE svg PUBLIC "-//W3C//DTD SVG 1.1//EN"
  "http://www.w3.org/Graphics/SVG/1.1/DTD/svg11.dtd">
<!-- Created with matplotlib (https://matplotlib.org/) -->
<svg height="360pt" version="1.1" viewBox="0 0 509.76 360" width="509.76pt" xmlns="http://www.w3.org/2000/svg" xmlns:xlink="http://www.w3.org/1999/xlink">
 <defs>
  <style type="text/css">
*{stroke-linecap:butt;stroke-linejoin:round;}
  </style>
 </defs>
 <g id="figure_1">
  <g id="patch_1">
   <path d="M 0 360 
L 509.76 360 
L 509.76 0 
L 0 0 
z
" style="fill:#ffffff;"/>
  </g>
  <g id="axes_1">
   <g id="patch_2">
    <path d="M 55.96 95.68 
L 496.8 95.68 
L 496.8 14.32631 
L 55.96 14.32631 
z
" style="fill:#ffffff;"/>
   </g>
   <g id="matplotlib.axis_1">
    <g id="xtick_1">
     <g id="line2d_1">
      <defs>
       <path d="M 0 0 
L 0 3.5 
" id="m1cf83446f9" style="stroke:#000000;stroke-width:0.8;"/>
      </defs>
      <g>
       <use style="stroke:#000000;stroke-width:0.8;" x="75.7977" xlink:href="#m1cf83446f9" y="95.68"/>
      </g>
     </g>
     <g id="text_1">
      <!-- 0.00 -->
      <defs>
       <path d="M 31.78125 66.40625 
Q 24.171875 66.40625 20.328125 58.90625 
Q 16.5 51.421875 16.5 36.375 
Q 16.5 21.390625 20.328125 13.890625 
Q 24.171875 6.390625 31.78125 6.390625 
Q 39.453125 6.390625 43.28125 13.890625 
Q 47.125 21.390625 47.125 36.375 
Q 47.125 51.421875 43.28125 58.90625 
Q 39.453125 66.40625 31.78125 66.40625 
z
M 31.78125 74.21875 
Q 44.046875 74.21875 50.515625 64.515625 
Q 56.984375 54.828125 56.984375 36.375 
Q 56.984375 17.96875 50.515625 8.265625 
Q 44.046875 -1.421875 31.78125 -1.421875 
Q 19.53125 -1.421875 13.0625 8.265625 
Q 6.59375 17.96875 6.59375 36.375 
Q 6.59375 54.828125 13.0625 64.515625 
Q 19.53125 74.21875 31.78125 74.21875 
z
" id="DejaVuSans-48"/>
       <path d="M 10.6875 12.40625 
L 21 12.40625 
L 21 0 
L 10.6875 0 
z
" id="DejaVuSans-46"/>
      </defs>
      <g transform="translate(62.438325 111.798125)scale(0.12 -0.12)">
       <use xlink:href="#DejaVuSans-48"/>
       <use x="63.623047" xlink:href="#DejaVuSans-46"/>
       <use x="95.410156" xlink:href="#DejaVuSans-48"/>
       <use x="159.033203" xlink:href="#DejaVuSans-48"/>
      </g>
     </g>
    </g>
    <g id="xtick_2">
     <g id="line2d_2">
      <g>
       <use style="stroke:#000000;stroke-width:0.8;" x="125.918215" xlink:href="#m1cf83446f9" y="95.68"/>
      </g>
     </g>
     <g id="text_2">
      <!-- 0.25 -->
      <defs>
       <path d="M 19.1875 8.296875 
L 53.609375 8.296875 
L 53.609375 0 
L 7.328125 0 
L 7.328125 8.296875 
Q 12.9375 14.109375 22.625 23.890625 
Q 32.328125 33.6875 34.8125 36.53125 
Q 39.546875 41.84375 41.421875 45.53125 
Q 43.3125 49.21875 43.3125 52.78125 
Q 43.3125 58.59375 39.234375 62.25 
Q 35.15625 65.921875 28.609375 65.921875 
Q 23.96875 65.921875 18.8125 64.3125 
Q 13.671875 62.703125 7.8125 59.421875 
L 7.8125 69.390625 
Q 13.765625 71.78125 18.9375 73 
Q 24.125 74.21875 28.421875 74.21875 
Q 39.75 74.21875 46.484375 68.546875 
Q 53.21875 62.890625 53.21875 53.421875 
Q 53.21875 48.921875 51.53125 44.890625 
Q 49.859375 40.875 45.40625 35.40625 
Q 44.1875 33.984375 37.640625 27.21875 
Q 31.109375 20.453125 19.1875 8.296875 
z
" id="DejaVuSans-50"/>
       <path d="M 10.796875 72.90625 
L 49.515625 72.90625 
L 49.515625 64.59375 
L 19.828125 64.59375 
L 19.828125 46.734375 
Q 21.96875 47.46875 24.109375 47.828125 
Q 26.265625 48.1875 28.421875 48.1875 
Q 40.625 48.1875 47.75 41.5 
Q 54.890625 34.8125 54.890625 23.390625 
Q 54.890625 11.625 47.5625 5.09375 
Q 40.234375 -1.421875 26.90625 -1.421875 
Q 22.3125 -1.421875 17.546875 -0.640625 
Q 12.796875 0.140625 7.71875 1.703125 
L 7.71875 11.625 
Q 12.109375 9.234375 16.796875 8.0625 
Q 21.484375 6.890625 26.703125 6.890625 
Q 35.15625 6.890625 40.078125 11.328125 
Q 45.015625 15.765625 45.015625 23.390625 
Q 45.015625 31 40.078125 35.4375 
Q 35.15625 39.890625 26.703125 39.890625 
Q 22.75 39.890625 18.8125 39.015625 
Q 14.890625 38.140625 10.796875 36.28125 
z
" id="DejaVuSans-53"/>
      </defs>
      <g transform="translate(112.55884 111.798125)scale(0.12 -0.12)">
       <use xlink:href="#DejaVuSans-48"/>
       <use x="63.623047" xlink:href="#DejaVuSans-46"/>
       <use x="95.410156" xlink:href="#DejaVuSans-50"/>
       <use x="159.033203" xlink:href="#DejaVuSans-53"/>
      </g>
     </g>
    </g>
    <g id="xtick_3">
     <g id="line2d_3">
      <g>
       <use style="stroke:#000000;stroke-width:0.8;" x="176.038729" xlink:href="#m1cf83446f9" y="95.68"/>
      </g>
     </g>
     <g id="text_3">
      <!-- 0.50 -->
      <g transform="translate(162.679354 111.798125)scale(0.12 -0.12)">
       <use xlink:href="#DejaVuSans-48"/>
       <use x="63.623047" xlink:href="#DejaVuSans-46"/>
       <use x="95.410156" xlink:href="#DejaVuSans-53"/>
       <use x="159.033203" xlink:href="#DejaVuSans-48"/>
      </g>
     </g>
    </g>
    <g id="xtick_4">
     <g id="line2d_4">
      <g>
       <use style="stroke:#000000;stroke-width:0.8;" x="226.159244" xlink:href="#m1cf83446f9" y="95.68"/>
      </g>
     </g>
     <g id="text_4">
      <!-- 0.75 -->
      <defs>
       <path d="M 8.203125 72.90625 
L 55.078125 72.90625 
L 55.078125 68.703125 
L 28.609375 0 
L 18.3125 0 
L 43.21875 64.59375 
L 8.203125 64.59375 
z
" id="DejaVuSans-55"/>
      </defs>
      <g transform="translate(212.799869 111.798125)scale(0.12 -0.12)">
       <use xlink:href="#DejaVuSans-48"/>
       <use x="63.623047" xlink:href="#DejaVuSans-46"/>
       <use x="95.410156" xlink:href="#DejaVuSans-55"/>
       <use x="159.033203" xlink:href="#DejaVuSans-53"/>
      </g>
     </g>
    </g>
    <g id="xtick_5">
     <g id="line2d_5">
      <g>
       <use style="stroke:#000000;stroke-width:0.8;" x="276.279759" xlink:href="#m1cf83446f9" y="95.68"/>
      </g>
     </g>
     <g id="text_5">
      <!-- 1.00 -->
      <defs>
       <path d="M 12.40625 8.296875 
L 28.515625 8.296875 
L 28.515625 63.921875 
L 10.984375 60.40625 
L 10.984375 69.390625 
L 28.421875 72.90625 
L 38.28125 72.90625 
L 38.28125 8.296875 
L 54.390625 8.296875 
L 54.390625 0 
L 12.40625 0 
z
" id="DejaVuSans-49"/>
      </defs>
      <g transform="translate(262.920384 111.798125)scale(0.12 -0.12)">
       <use xlink:href="#DejaVuSans-49"/>
       <use x="63.623047" xlink:href="#DejaVuSans-46"/>
       <use x="95.410156" xlink:href="#DejaVuSans-48"/>
       <use x="159.033203" xlink:href="#DejaVuSans-48"/>
      </g>
     </g>
    </g>
    <g id="xtick_6">
     <g id="line2d_6">
      <g>
       <use style="stroke:#000000;stroke-width:0.8;" x="326.400274" xlink:href="#m1cf83446f9" y="95.68"/>
      </g>
     </g>
     <g id="text_6">
      <!-- 1.25 -->
      <g transform="translate(313.040899 111.798125)scale(0.12 -0.12)">
       <use xlink:href="#DejaVuSans-49"/>
       <use x="63.623047" xlink:href="#DejaVuSans-46"/>
       <use x="95.410156" xlink:href="#DejaVuSans-50"/>
       <use x="159.033203" xlink:href="#DejaVuSans-53"/>
      </g>
     </g>
    </g>
    <g id="xtick_7">
     <g id="line2d_7">
      <g>
       <use style="stroke:#000000;stroke-width:0.8;" x="376.520789" xlink:href="#m1cf83446f9" y="95.68"/>
      </g>
     </g>
     <g id="text_7">
      <!-- 1.50 -->
      <g transform="translate(363.161414 111.798125)scale(0.12 -0.12)">
       <use xlink:href="#DejaVuSans-49"/>
       <use x="63.623047" xlink:href="#DejaVuSans-46"/>
       <use x="95.410156" xlink:href="#DejaVuSans-53"/>
       <use x="159.033203" xlink:href="#DejaVuSans-48"/>
      </g>
     </g>
    </g>
    <g id="xtick_8">
     <g id="line2d_8">
      <g>
       <use style="stroke:#000000;stroke-width:0.8;" x="426.641303" xlink:href="#m1cf83446f9" y="95.68"/>
      </g>
     </g>
     <g id="text_8">
      <!-- 1.75 -->
      <g transform="translate(413.281928 111.798125)scale(0.12 -0.12)">
       <use xlink:href="#DejaVuSans-49"/>
       <use x="63.623047" xlink:href="#DejaVuSans-46"/>
       <use x="95.410156" xlink:href="#DejaVuSans-55"/>
       <use x="159.033203" xlink:href="#DejaVuSans-53"/>
      </g>
     </g>
    </g>
    <g id="xtick_9">
     <g id="line2d_9">
      <g>
       <use style="stroke:#000000;stroke-width:0.8;" x="476.761818" xlink:href="#m1cf83446f9" y="95.68"/>
      </g>
     </g>
     <g id="text_9">
      <!-- 2.00 -->
      <g transform="translate(463.402443 111.798125)scale(0.12 -0.12)">
       <use xlink:href="#DejaVuSans-50"/>
       <use x="63.623047" xlink:href="#DejaVuSans-46"/>
       <use x="95.410156" xlink:href="#DejaVuSans-48"/>
       <use x="159.033203" xlink:href="#DejaVuSans-48"/>
      </g>
     </g>
    </g>
   </g>
   <g id="matplotlib.axis_2">
    <g id="ytick_1">
     <g id="line2d_10">
      <defs>
       <path d="M 0 0 
L -3.5 0 
" id="mb27295fb76" style="stroke:#000000;stroke-width:0.8;"/>
      </defs>
      <g>
       <use style="stroke:#000000;stroke-width:0.8;" x="55.96" xlink:href="#mb27295fb76" y="91.982105"/>
      </g>
     </g>
     <g id="text_10">
      <!-- −1 -->
      <defs>
       <path d="M 10.59375 35.5 
L 73.1875 35.5 
L 73.1875 27.203125 
L 10.59375 27.203125 
z
" id="DejaVuSans-8722"/>
      </defs>
      <g transform="translate(31.269375 96.541168)scale(0.12 -0.12)">
       <use xlink:href="#DejaVuSans-8722"/>
       <use x="83.789062" xlink:href="#DejaVuSans-49"/>
      </g>
     </g>
    </g>
    <g id="ytick_2">
     <g id="line2d_11">
      <g>
       <use style="stroke:#000000;stroke-width:0.8;" x="55.96" xlink:href="#mb27295fb76" y="55.003155"/>
      </g>
     </g>
     <g id="text_11">
      <!-- 0 -->
      <g transform="translate(41.325 59.562218)scale(0.12 -0.12)">
       <use xlink:href="#DejaVuSans-48"/>
      </g>
     </g>
    </g>
    <g id="ytick_3">
     <g id="line2d_12">
      <g>
       <use style="stroke:#000000;stroke-width:0.8;" x="55.96" xlink:href="#mb27295fb76" y="18.024205"/>
      </g>
     </g>
     <g id="text_12">
      <!-- 1 -->
      <g transform="translate(41.325 22.583268)scale(0.12 -0.12)">
       <use xlink:href="#DejaVuSans-49"/>
      </g>
     </g>
    </g>
    <g id="text_13">
     <!-- pre -->
     <defs>
      <path d="M 18.109375 8.203125 
L 18.109375 -20.796875 
L 9.078125 -20.796875 
L 9.078125 54.6875 
L 18.109375 54.6875 
L 18.109375 46.390625 
Q 20.953125 51.265625 25.265625 53.625 
Q 29.59375 56 35.59375 56 
Q 45.5625 56 51.78125 48.09375 
Q 58.015625 40.1875 58.015625 27.296875 
Q 58.015625 14.40625 51.78125 6.484375 
Q 45.5625 -1.421875 35.59375 -1.421875 
Q 29.59375 -1.421875 25.265625 0.953125 
Q 20.953125 3.328125 18.109375 8.203125 
z
M 48.6875 27.296875 
Q 48.6875 37.203125 44.609375 42.84375 
Q 40.53125 48.484375 33.40625 48.484375 
Q 26.265625 48.484375 22.1875 42.84375 
Q 18.109375 37.203125 18.109375 27.296875 
Q 18.109375 17.390625 22.1875 11.75 
Q 26.265625 6.109375 33.40625 6.109375 
Q 40.53125 6.109375 44.609375 11.75 
Q 48.6875 17.390625 48.6875 27.296875 
z
" id="DejaVuSans-112"/>
      <path d="M 41.109375 46.296875 
Q 39.59375 47.171875 37.8125 47.578125 
Q 36.03125 48 33.890625 48 
Q 26.265625 48 22.1875 43.046875 
Q 18.109375 38.09375 18.109375 28.8125 
L 18.109375 0 
L 9.078125 0 
L 9.078125 54.6875 
L 18.109375 54.6875 
L 18.109375 46.1875 
Q 20.953125 51.171875 25.484375 53.578125 
Q 30.03125 56 36.53125 56 
Q 37.453125 56 38.578125 55.875 
Q 39.703125 55.765625 41.0625 55.515625 
z
" id="DejaVuSans-114"/>
      <path d="M 56.203125 29.59375 
L 56.203125 25.203125 
L 14.890625 25.203125 
Q 15.484375 15.921875 20.484375 11.0625 
Q 25.484375 6.203125 34.421875 6.203125 
Q 39.59375 6.203125 44.453125 7.46875 
Q 49.3125 8.734375 54.109375 11.28125 
L 54.109375 2.78125 
Q 49.265625 0.734375 44.1875 -0.34375 
Q 39.109375 -1.421875 33.890625 -1.421875 
Q 20.796875 -1.421875 13.15625 6.1875 
Q 5.515625 13.8125 5.515625 26.8125 
Q 5.515625 40.234375 12.765625 48.109375 
Q 20.015625 56 32.328125 56 
Q 43.359375 56 49.78125 48.890625 
Q 56.203125 41.796875 56.203125 29.59375 
z
M 47.21875 32.234375 
Q 47.125 39.59375 43.09375 43.984375 
Q 39.0625 48.390625 32.421875 48.390625 
Q 24.90625 48.390625 20.390625 44.140625 
Q 15.875 39.890625 15.1875 32.171875 
z
" id="DejaVuSans-101"/>
     </defs>
     <g transform="translate(24.77375 64.835655)rotate(-90)scale(0.12 -0.12)">
      <use xlink:href="#DejaVuSans-112"/>
      <use x="63.476562" xlink:href="#DejaVuSans-114"/>
      <use x="102.339844" xlink:href="#DejaVuSans-101"/>
     </g>
    </g>
   </g>
   <g id="line2d_13">
    <path clip-path="url(#p7d8b55eaaa)" d="M 75.998182 55.003155 
L 95.845906 55.003155 
L 96.046388 18.024205 
L 115.69363 18.024205 
L 115.894112 55.003155 
L 176.038729 55.003155 
L 176.239211 18.024205 
L 196.086935 18.024205 
L 196.287417 55.003155 
L 256.231553 55.003155 
L 256.432035 18.024205 
L 276.279759 18.024205 
L 276.480241 55.003155 
L 336.424377 55.003155 
L 336.624859 18.024205 
L 356.272101 18.024205 
L 356.472583 55.003155 
L 416.6172 55.003155 
L 416.817682 18.024205 
L 436.665406 18.024205 
L 436.865888 55.003155 
L 476.761818 55.003155 
L 476.761818 55.003155 
" style="fill:none;stroke:#1f77b4;stroke-linecap:square;stroke-width:1.5;"/>
   </g>
   <g id="line2d_14">
    <path clip-path="url(#p7d8b55eaaa)" d="M 75.998182 23.452955 
L 78.403967 27.020637 
L 80.809751 30.184888 
L 83.215536 32.991327 
L 85.821803 35.67467 
L 88.428069 38.0309 
L 91.034336 40.099896 
L 93.841085 42.046884 
L 95.845906 43.279836 
L 98.051208 36.797117 
L 100.256511 30.989676 
L 102.461814 25.787172 
L 104.667116 21.126592 
L 106.270973 18.044992 
L 106.471455 91.982105 
L 106.671937 91.982105 
L 110.280614 73.75959 
L 112.485917 64.101921 
L 114.691219 55.450252 
L 115.69363 51.821477 
L 121.307127 52.598495 
L 127.722553 53.257013 
L 135.340871 53.809036 
L 144.763528 54.256828 
L 156.792452 54.593562 
L 173.632945 54.826329 
L 176.038729 54.846325 
L 178.244032 47.158773 
L 180.449335 40.272001 
L 182.654637 34.102596 
L 184.85994 28.575832 
L 187.065243 23.624768 
L 189.270545 19.189437 
L 189.871991 18.062106 
L 190.072474 91.982105 
L 190.272956 91.982105 
L 195.485489 66.670959 
L 196.086935 64.140337 
L 199.49513 62.711874 
L 203.103807 61.442018 
L 207.113449 60.27485 
L 211.524054 59.23379 
L 216.335623 58.33109 
L 221.748639 57.543632 
L 227.963583 56.86646 
L 235.381419 56.290204 
L 244.403112 55.823814 
L 255.830589 55.467258 
L 256.231553 55.458069 
L 258.436856 47.706794 
L 260.642158 40.762937 
L 262.847461 34.542393 
L 265.052764 28.969817 
L 267.258066 23.977714 
L 269.463369 19.505617 
L 270.064815 18.368942 
L 270.265297 91.982105 
L 270.666261 91.902184 
L 272.871564 80.354676 
L 275.076867 70.010024 
L 276.279759 64.829119 
L 279.487472 63.37629 
L 282.895667 62.067274 
L 286.704826 60.844893 
L 290.914949 59.738376 
L 295.526037 58.765447 
L 300.73857 57.904076 
L 306.55255 57.173809 
L 313.36894 56.548162 
L 321.588704 56.028499 
L 331.813289 55.61887 
L 336.424377 55.492361 
L 338.629679 47.737514 
L 340.834982 40.790457 
L 343.040285 34.567046 
L 345.245587 28.991903 
L 347.45089 23.997499 
L 349.656193 19.523341 
L 350.257639 18.386142 
L 350.458121 91.982105 
L 350.859085 91.953271 
L 353.064388 80.400442 
L 355.26969 70.051023 
L 356.272101 65.71016 
L 359.479814 64.127063 
L 362.888009 62.700675 
L 366.496686 61.432664 
L 370.506327 60.267192 
L 374.916932 59.227644 
L 379.728502 58.326256 
L 385.141517 57.539942 
L 391.356461 56.863754 
L 398.774297 56.288334 
L 407.79599 55.822622 
L 416.6172 55.530921 
L 418.822503 47.772058 
L 421.027806 40.821402 
L 423.233108 34.594768 
L 425.438411 29.016737 
L 427.643714 24.019746 
L 429.849016 19.543271 
L 430.650945 18.033742 
L 430.851427 91.982105 
L 431.051909 91.982105 
L 433.858658 77.513993 
L 436.06396 67.465243 
L 436.665406 64.911147 
L 439.873119 63.446189 
L 443.281314 62.126245 
L 447.090473 60.89366 
L 451.300597 59.777905 
L 455.911684 58.796855 
L 461.124218 57.928293 
L 466.938197 57.191929 
L 473.754587 56.56106 
L 476.761818 56.344056 
L 476.761818 56.344056 
" style="fill:none;stroke:#ff7f0e;stroke-linecap:square;stroke-width:1.5;"/>
   </g>
   <g id="line2d_15">
    <path clip-path="url(#p7d8b55eaaa)" d="M 75.998182 55.003155 
L 106.270973 55.003155 
L 106.471455 18.024205 
L 106.671937 55.003155 
L 189.871991 55.003155 
L 190.072474 18.024205 
L 190.272956 55.003155 
L 270.064815 55.003155 
L 270.265297 18.024205 
L 270.465779 55.003155 
L 350.257639 55.003155 
L 350.458121 18.024205 
L 350.658603 55.003155 
L 430.650945 55.003155 
L 430.851427 18.024205 
L 431.051909 55.003155 
L 476.761818 55.003155 
L 476.761818 55.003155 
" style="fill:none;stroke:#000000;stroke-linecap:square;stroke-width:1.5;"/>
   </g>
   <g id="patch_3">
    <path d="M 55.96 95.68 
L 55.96 14.32631 
" style="fill:none;stroke:#000000;stroke-linecap:square;stroke-linejoin:miter;stroke-width:0.8;"/>
   </g>
   <g id="patch_4">
    <path d="M 496.8 95.68 
L 496.8 14.32631 
" style="fill:none;stroke:#000000;stroke-linecap:square;stroke-linejoin:miter;stroke-width:0.8;"/>
   </g>
   <g id="patch_5">
    <path d="M 55.96 95.68 
L 496.8 95.68 
" style="fill:none;stroke:#000000;stroke-linecap:square;stroke-linejoin:miter;stroke-width:0.8;"/>
   </g>
   <g id="patch_6">
    <path d="M 55.96 14.32631 
L 496.8 14.32631 
" style="fill:none;stroke:#000000;stroke-linecap:square;stroke-linejoin:miter;stroke-width:0.8;"/>
   </g>
  </g>
  <g id="axes_2">
   <g id="patch_7">
    <path d="M 55.96 211.36 
L 496.8 211.36 
L 496.8 130.00631 
L 55.96 130.00631 
z
" style="fill:#ffffff;"/>
   </g>
   <g id="matplotlib.axis_3">
    <g id="xtick_10">
     <g id="line2d_16">
      <g>
       <use style="stroke:#000000;stroke-width:0.8;" x="75.7977" xlink:href="#m1cf83446f9" y="211.36"/>
      </g>
     </g>
     <g id="text_14">
      <!-- 0.00 -->
      <g transform="translate(62.438325 227.478125)scale(0.12 -0.12)">
       <use xlink:href="#DejaVuSans-48"/>
       <use x="63.623047" xlink:href="#DejaVuSans-46"/>
       <use x="95.410156" xlink:href="#DejaVuSans-48"/>
       <use x="159.033203" xlink:href="#DejaVuSans-48"/>
      </g>
     </g>
    </g>
    <g id="xtick_11">
     <g id="line2d_17">
      <g>
       <use style="stroke:#000000;stroke-width:0.8;" x="125.918215" xlink:href="#m1cf83446f9" y="211.36"/>
      </g>
     </g>
     <g id="text_15">
      <!-- 0.25 -->
      <g transform="translate(112.55884 227.478125)scale(0.12 -0.12)">
       <use xlink:href="#DejaVuSans-48"/>
       <use x="63.623047" xlink:href="#DejaVuSans-46"/>
       <use x="95.410156" xlink:href="#DejaVuSans-50"/>
       <use x="159.033203" xlink:href="#DejaVuSans-53"/>
      </g>
     </g>
    </g>
    <g id="xtick_12">
     <g id="line2d_18">
      <g>
       <use style="stroke:#000000;stroke-width:0.8;" x="176.038729" xlink:href="#m1cf83446f9" y="211.36"/>
      </g>
     </g>
     <g id="text_16">
      <!-- 0.50 -->
      <g transform="translate(162.679354 227.478125)scale(0.12 -0.12)">
       <use xlink:href="#DejaVuSans-48"/>
       <use x="63.623047" xlink:href="#DejaVuSans-46"/>
       <use x="95.410156" xlink:href="#DejaVuSans-53"/>
       <use x="159.033203" xlink:href="#DejaVuSans-48"/>
      </g>
     </g>
    </g>
    <g id="xtick_13">
     <g id="line2d_19">
      <g>
       <use style="stroke:#000000;stroke-width:0.8;" x="226.159244" xlink:href="#m1cf83446f9" y="211.36"/>
      </g>
     </g>
     <g id="text_17">
      <!-- 0.75 -->
      <g transform="translate(212.799869 227.478125)scale(0.12 -0.12)">
       <use xlink:href="#DejaVuSans-48"/>
       <use x="63.623047" xlink:href="#DejaVuSans-46"/>
       <use x="95.410156" xlink:href="#DejaVuSans-55"/>
       <use x="159.033203" xlink:href="#DejaVuSans-53"/>
      </g>
     </g>
    </g>
    <g id="xtick_14">
     <g id="line2d_20">
      <g>
       <use style="stroke:#000000;stroke-width:0.8;" x="276.279759" xlink:href="#m1cf83446f9" y="211.36"/>
      </g>
     </g>
     <g id="text_18">
      <!-- 1.00 -->
      <g transform="translate(262.920384 227.478125)scale(0.12 -0.12)">
       <use xlink:href="#DejaVuSans-49"/>
       <use x="63.623047" xlink:href="#DejaVuSans-46"/>
       <use x="95.410156" xlink:href="#DejaVuSans-48"/>
       <use x="159.033203" xlink:href="#DejaVuSans-48"/>
      </g>
     </g>
    </g>
    <g id="xtick_15">
     <g id="line2d_21">
      <g>
       <use style="stroke:#000000;stroke-width:0.8;" x="326.400274" xlink:href="#m1cf83446f9" y="211.36"/>
      </g>
     </g>
     <g id="text_19">
      <!-- 1.25 -->
      <g transform="translate(313.040899 227.478125)scale(0.12 -0.12)">
       <use xlink:href="#DejaVuSans-49"/>
       <use x="63.623047" xlink:href="#DejaVuSans-46"/>
       <use x="95.410156" xlink:href="#DejaVuSans-50"/>
       <use x="159.033203" xlink:href="#DejaVuSans-53"/>
      </g>
     </g>
    </g>
    <g id="xtick_16">
     <g id="line2d_22">
      <g>
       <use style="stroke:#000000;stroke-width:0.8;" x="376.520789" xlink:href="#m1cf83446f9" y="211.36"/>
      </g>
     </g>
     <g id="text_20">
      <!-- 1.50 -->
      <g transform="translate(363.161414 227.478125)scale(0.12 -0.12)">
       <use xlink:href="#DejaVuSans-49"/>
       <use x="63.623047" xlink:href="#DejaVuSans-46"/>
       <use x="95.410156" xlink:href="#DejaVuSans-53"/>
       <use x="159.033203" xlink:href="#DejaVuSans-48"/>
      </g>
     </g>
    </g>
    <g id="xtick_17">
     <g id="line2d_23">
      <g>
       <use style="stroke:#000000;stroke-width:0.8;" x="426.641303" xlink:href="#m1cf83446f9" y="211.36"/>
      </g>
     </g>
     <g id="text_21">
      <!-- 1.75 -->
      <g transform="translate(413.281928 227.478125)scale(0.12 -0.12)">
       <use xlink:href="#DejaVuSans-49"/>
       <use x="63.623047" xlink:href="#DejaVuSans-46"/>
       <use x="95.410156" xlink:href="#DejaVuSans-55"/>
       <use x="159.033203" xlink:href="#DejaVuSans-53"/>
      </g>
     </g>
    </g>
    <g id="xtick_18">
     <g id="line2d_24">
      <g>
       <use style="stroke:#000000;stroke-width:0.8;" x="476.761818" xlink:href="#m1cf83446f9" y="211.36"/>
      </g>
     </g>
     <g id="text_22">
      <!-- 2.00 -->
      <g transform="translate(463.402443 227.478125)scale(0.12 -0.12)">
       <use xlink:href="#DejaVuSans-50"/>
       <use x="63.623047" xlink:href="#DejaVuSans-46"/>
       <use x="95.410156" xlink:href="#DejaVuSans-48"/>
       <use x="159.033203" xlink:href="#DejaVuSans-48"/>
      </g>
     </g>
    </g>
   </g>
   <g id="matplotlib.axis_4">
    <g id="ytick_4">
     <g id="line2d_25">
      <g>
       <use style="stroke:#000000;stroke-width:0.8;" x="55.96" xlink:href="#mb27295fb76" y="207.662105"/>
      </g>
     </g>
     <g id="text_23">
      <!-- −1 -->
      <g transform="translate(31.269375 212.221168)scale(0.12 -0.12)">
       <use xlink:href="#DejaVuSans-8722"/>
       <use x="83.789062" xlink:href="#DejaVuSans-49"/>
      </g>
     </g>
    </g>
    <g id="ytick_5">
     <g id="line2d_26">
      <g>
       <use style="stroke:#000000;stroke-width:0.8;" x="55.96" xlink:href="#mb27295fb76" y="170.683155"/>
      </g>
     </g>
     <g id="text_24">
      <!-- 0 -->
      <g transform="translate(41.325 175.242218)scale(0.12 -0.12)">
       <use xlink:href="#DejaVuSans-48"/>
      </g>
     </g>
    </g>
    <g id="ytick_6">
     <g id="line2d_27">
      <g>
       <use style="stroke:#000000;stroke-width:0.8;" x="55.96" xlink:href="#mb27295fb76" y="133.704205"/>
      </g>
     </g>
     <g id="text_25">
      <!-- 1 -->
      <g transform="translate(41.325 138.263268)scale(0.12 -0.12)">
       <use xlink:href="#DejaVuSans-49"/>
      </g>
     </g>
    </g>
    <g id="text_26">
     <!-- post -->
     <defs>
      <path d="M 30.609375 48.390625 
Q 23.390625 48.390625 19.1875 42.75 
Q 14.984375 37.109375 14.984375 27.296875 
Q 14.984375 17.484375 19.15625 11.84375 
Q 23.34375 6.203125 30.609375 6.203125 
Q 37.796875 6.203125 41.984375 11.859375 
Q 46.1875 17.53125 46.1875 27.296875 
Q 46.1875 37.015625 41.984375 42.703125 
Q 37.796875 48.390625 30.609375 48.390625 
z
M 30.609375 56 
Q 42.328125 56 49.015625 48.375 
Q 55.71875 40.765625 55.71875 27.296875 
Q 55.71875 13.875 49.015625 6.21875 
Q 42.328125 -1.421875 30.609375 -1.421875 
Q 18.84375 -1.421875 12.171875 6.21875 
Q 5.515625 13.875 5.515625 27.296875 
Q 5.515625 40.765625 12.171875 48.375 
Q 18.84375 56 30.609375 56 
z
" id="DejaVuSans-111"/>
      <path d="M 44.28125 53.078125 
L 44.28125 44.578125 
Q 40.484375 46.53125 36.375 47.5 
Q 32.28125 48.484375 27.875 48.484375 
Q 21.1875 48.484375 17.84375 46.4375 
Q 14.5 44.390625 14.5 40.28125 
Q 14.5 37.15625 16.890625 35.375 
Q 19.28125 33.59375 26.515625 31.984375 
L 29.59375 31.296875 
Q 39.15625 29.25 43.1875 25.515625 
Q 47.21875 21.78125 47.21875 15.09375 
Q 47.21875 7.46875 41.1875 3.015625 
Q 35.15625 -1.421875 24.609375 -1.421875 
Q 20.21875 -1.421875 15.453125 -0.5625 
Q 10.6875 0.296875 5.421875 2 
L 5.421875 11.28125 
Q 10.40625 8.6875 15.234375 7.390625 
Q 20.0625 6.109375 24.8125 6.109375 
Q 31.15625 6.109375 34.5625 8.28125 
Q 37.984375 10.453125 37.984375 14.40625 
Q 37.984375 18.0625 35.515625 20.015625 
Q 33.0625 21.96875 24.703125 23.78125 
L 21.578125 24.515625 
Q 13.234375 26.265625 9.515625 29.90625 
Q 5.8125 33.546875 5.8125 39.890625 
Q 5.8125 47.609375 11.28125 51.796875 
Q 16.75 56 26.8125 56 
Q 31.78125 56 36.171875 55.265625 
Q 40.578125 54.546875 44.28125 53.078125 
z
" id="DejaVuSans-115"/>
      <path d="M 18.3125 70.21875 
L 18.3125 54.6875 
L 36.8125 54.6875 
L 36.8125 47.703125 
L 18.3125 47.703125 
L 18.3125 18.015625 
Q 18.3125 11.328125 20.140625 9.421875 
Q 21.96875 7.515625 27.59375 7.515625 
L 36.8125 7.515625 
L 36.8125 0 
L 27.59375 0 
Q 17.1875 0 13.234375 3.875 
Q 9.28125 7.765625 9.28125 18.015625 
L 9.28125 47.703125 
L 2.6875 47.703125 
L 2.6875 54.6875 
L 9.28125 54.6875 
L 9.28125 70.21875 
z
" id="DejaVuSans-116"/>
     </defs>
     <g transform="translate(24.77375 183.64128)rotate(-90)scale(0.12 -0.12)">
      <use xlink:href="#DejaVuSans-112"/>
      <use x="63.476562" xlink:href="#DejaVuSans-111"/>
      <use x="124.658203" xlink:href="#DejaVuSans-115"/>
      <use x="176.757812" xlink:href="#DejaVuSans-116"/>
     </g>
    </g>
   </g>
   <g id="line2d_28">
    <path clip-path="url(#p607d43da59)" d="M 75.998182 170.683155 
L 87.826623 170.683155 
L 88.027105 133.704205 
L 107.674347 133.704205 
L 107.874829 170.683155 
L 168.019447 170.683155 
L 168.219929 133.704205 
L 187.867171 133.704205 
L 188.067653 170.683155 
L 264.250835 170.683155 
L 264.451317 133.704205 
L 284.098559 133.704205 
L 284.299041 170.683155 
L 344.443659 170.683155 
L 344.644141 133.704205 
L 364.491865 133.704205 
L 364.692347 170.683155 
L 424.636483 170.683155 
L 424.836965 133.704205 
L 444.484207 133.704205 
L 444.684689 170.683155 
L 476.761818 170.683155 
L 476.761818 170.683155 
" style="fill:none;stroke:#1f77b4;stroke-linecap:square;stroke-width:1.5;"/>
   </g>
   <g id="line2d_29">
    <path clip-path="url(#p607d43da59)" d="M 75.998182 162.910591 
L 79.606859 164.190964 
L 83.6165 165.367798 
L 87.826623 166.374611 
L 90.031926 159.119525 
L 92.237229 152.620172 
L 94.442531 146.79783 
L 96.647834 141.581977 
L 98.853137 136.909438 
L 100.456993 133.819931 
L 100.657475 207.662105 
L 100.857957 207.662105 
L 101.258921 205.805711 
L 103.464224 194.443251 
L 105.669527 184.264371 
L 106.471455 180.831914 
L 106.671937 207.662105 
L 106.872419 207.662105 
L 107.072901 194.110458 
L 107.273383 156.850712 
L 107.473865 207.662105 
L 107.674347 207.662105 
L 107.874829 202.830974 
L 108.476275 161.748927 
L 109.077722 139.988101 
L 109.278204 135.382103 
L 109.478686 207.662105 
L 109.679168 207.662105 
L 110.080132 203.433554 
L 110.681578 198.018888 
L 111.283024 194.77057 
L 111.88447 192.719345 
L 112.485917 191.333035 
L 113.287845 190.034 
L 114.290255 188.839468 
L 115.894112 187.329483 
L 118.299896 185.421701 
L 121.106645 183.493889 
L 124.113876 181.709313 
L 127.321589 180.07902 
L 130.729784 178.610116 
L 134.338461 177.304309 
L 138.14762 176.158579 
L 142.357743 175.121447 
L 147.169313 174.174439 
L 152.582328 173.34833 
L 158.797272 172.637919 
L 166.014626 172.046948 
L 168.019447 171.917166 
L 170.22475 164.084735 
L 172.430052 157.068177 
L 174.635355 150.782504 
L 176.840658 145.151584 
L 179.04596 140.107214 
L 181.251263 135.588295 
L 182.053191 134.064453 
L 182.253673 207.662105 
L 182.654637 207.628255 
L 184.85994 196.075948 
L 187.065243 185.726997 
L 187.867171 182.237189 
L 190.072474 181.033653 
L 190.272956 207.662105 
L 190.473438 207.662105 
L 190.67392 171.793708 
L 190.874402 207.662105 
L 191.074884 207.662105 
L 191.275366 196.116773 
L 191.67633 140.998022 
L 191.876812 207.662105 
L 192.077294 207.662105 
L 193.079704 164.526813 
L 193.681151 152.425128 
L 194.082115 147.832088 
L 194.483079 144.96342 
L 194.884043 143.246472 
L 195.285007 142.297466 
L 195.685971 141.859229 
L 196.086935 141.759453 
L 196.487899 141.882712 
L 197.089346 142.323948 
L 198.091756 143.395769 
L 203.705254 149.912159 
L 206.31152 152.443655 
L 208.917787 154.66709 
L 211.724536 156.759453 
L 214.531285 158.57847 
L 217.538516 160.264556 
L 220.746229 161.805011 
L 224.154424 163.192977 
L 227.763101 164.426833 
L 231.772742 165.560911 
L 236.183347 166.572458 
L 241.195399 167.481741 
L 246.808896 168.263579 
L 253.224322 168.926182 
L 260.84264 169.481629 
L 264.250835 169.66947 
L 266.456138 162.071173 
L 268.661441 155.264359 
L 270.265297 150.763658 
L 270.465779 207.662105 
L 270.666261 207.662105 
L 270.866743 134.929589 
L 271.067225 207.662105 
L 271.267707 207.662105 
L 271.46819 161.798744 
L 271.668672 207.662105 
L 271.869154 207.662105 
L 272.069636 200.816582 
L 272.671082 147.327012 
L 272.871564 135.581665 
L 273.072046 207.662105 
L 273.272528 207.662105 
L 274.074456 186.263839 
L 274.675902 176.794888 
L 275.277349 170.684104 
L 275.878795 166.443336 
L 276.680723 162.341601 
L 277.683133 158.440349 
L 279.086508 153.964809 
L 280.890846 148.956645 
L 283.096149 143.501769 
L 284.098559 141.219286 
L 286.504344 144.550463 
L 288.910129 147.505483 
L 291.315913 150.126399 
L 293.92218 152.632361 
L 296.528447 154.832836 
L 299.335196 156.903549 
L 302.141945 158.703741 
L 305.149175 160.372378 
L 308.356888 161.896891 
L 311.765083 163.270493 
L 315.373761 164.491579 
L 319.383402 165.613921 
L 323.794007 166.615 
L 328.806058 167.514873 
L 334.419556 168.288619 
L 340.834982 168.944365 
L 344.443659 169.230795 
L 346.648962 161.678193 
L 348.854264 154.912314 
L 350.458121 150.43868 
L 350.658603 207.662105 
L 351.260049 207.662105 
L 351.460531 204.024023 
L 351.661013 153.883162 
L 351.861495 207.662105 
L 352.061977 207.662105 
L 352.262459 193.44045 
L 352.863906 136.314716 
L 353.064388 207.662105 
L 353.26487 207.662105 
L 354.066798 180.948869 
L 354.668244 169.489349 
L 355.26969 162.415821 
L 355.871136 157.772558 
L 356.673065 153.580174 
L 357.474993 150.542659 
L 358.677885 146.953758 
L 360.281742 142.937771 
L 362.286562 138.506845 
L 364.491865 134.150042 
L 366.697168 137.955037 
L 369.102952 141.655861 
L 371.508737 144.93825 
L 373.914522 147.849472 
L 376.320307 150.431495 
L 378.926573 152.900265 
L 381.53284 155.06808 
L 384.339589 157.108061 
L 387.146338 158.881535 
L 390.153569 160.525407 
L 393.361282 162.027293 
L 396.769477 163.380509 
L 400.578636 164.644165 
L 404.588277 165.738848 
L 408.998882 166.715256 
L 414.010934 167.592952 
L 419.624431 168.34763 
L 424.636483 168.864246 
L 426.841785 161.349826 
L 429.047088 154.618152 
L 430.851427 149.635379 
L 431.051909 207.662105 
L 431.653355 207.662105 
L 431.853837 203.658113 
L 432.054319 153.520893 
L 432.254801 207.662105 
L 432.455283 207.662105 
L 432.655765 193.192447 
L 433.257211 136.074043 
L 433.457693 207.662105 
L 433.658175 207.662105 
L 434.460104 180.77797 
L 435.06155 169.323501 
L 435.662996 162.254875 
L 436.264442 157.616368 
L 437.06637 153.430108 
L 437.868299 150.398478 
L 439.071191 146.817974 
L 440.675048 142.812426 
L 442.679868 138.393428 
L 444.484207 134.802723 
L 446.889991 138.859298 
L 449.295776 142.457856 
L 451.701561 145.649554 
L 454.107345 148.480342 
L 456.51313 150.991026 
L 459.119397 153.391587 
L 461.725664 155.499508 
L 464.532413 157.483126 
L 467.539643 159.321785 
L 470.546874 160.904333 
L 473.754587 162.350193 
L 476.761818 163.510908 
L 476.761818 163.510908 
" style="fill:none;stroke:#ff7f0e;stroke-linecap:square;stroke-width:1.5;"/>
   </g>
   <g id="line2d_30">
    <path clip-path="url(#p607d43da59)" d="M 75.998182 170.683155 
L 100.456993 170.683155 
L 100.657475 133.704205 
L 100.857957 170.683155 
L 106.471455 170.683155 
L 106.671937 133.704205 
L 106.872419 170.683155 
L 107.273383 170.683155 
L 107.473865 133.704205 
L 107.674347 170.683155 
L 109.278204 170.683155 
L 109.478686 133.704205 
L 109.679168 170.683155 
L 182.053191 170.683155 
L 182.253673 133.704205 
L 182.454155 170.683155 
L 190.072474 170.683155 
L 190.272956 133.704205 
L 190.473438 170.683155 
L 190.67392 170.683155 
L 190.874402 133.704205 
L 191.074884 170.683155 
L 191.67633 170.683155 
L 191.876812 133.704205 
L 192.077294 170.683155 
L 270.265297 170.683155 
L 270.465779 133.704205 
L 270.666261 170.683155 
L 270.866743 170.683155 
L 271.067225 133.704205 
L 271.267707 170.683155 
L 271.46819 170.683155 
L 271.668672 133.704205 
L 271.869154 170.683155 
L 272.871564 170.683155 
L 273.072046 133.704205 
L 273.272528 170.683155 
L 350.458121 170.683155 
L 350.658603 133.704205 
L 350.859085 170.683155 
L 351.059567 133.704205 
L 351.260049 170.683155 
L 351.661013 170.683155 
L 351.861495 133.704205 
L 352.061977 170.683155 
L 352.863906 170.683155 
L 353.064388 133.704205 
L 353.26487 170.683155 
L 430.851427 170.683155 
L 431.051909 133.704205 
L 431.252391 170.683155 
L 431.452873 133.704205 
L 431.653355 170.683155 
L 432.054319 170.683155 
L 432.254801 133.704205 
L 432.455283 170.683155 
L 433.257211 170.683155 
L 433.457693 133.704205 
L 433.658175 170.683155 
L 476.761818 170.683155 
L 476.761818 170.683155 
" style="fill:none;stroke:#000000;stroke-linecap:square;stroke-width:1.5;"/>
   </g>
   <g id="patch_8">
    <path d="M 55.96 211.36 
L 55.96 130.00631 
" style="fill:none;stroke:#000000;stroke-linecap:square;stroke-linejoin:miter;stroke-width:0.8;"/>
   </g>
   <g id="patch_9">
    <path d="M 496.8 211.36 
L 496.8 130.00631 
" style="fill:none;stroke:#000000;stroke-linecap:square;stroke-linejoin:miter;stroke-width:0.8;"/>
   </g>
   <g id="patch_10">
    <path d="M 55.96 211.36 
L 496.8 211.36 
" style="fill:none;stroke:#000000;stroke-linecap:square;stroke-linejoin:miter;stroke-width:0.8;"/>
   </g>
   <g id="patch_11">
    <path d="M 55.96 130.00631 
L 496.8 130.00631 
" style="fill:none;stroke:#000000;stroke-linecap:square;stroke-linejoin:miter;stroke-width:0.8;"/>
   </g>
  </g>
  <g id="axes_3">
   <g id="patch_12">
    <path d="M 55.96 327.04 
L 496.8 327.04 
L 496.8 245.68631 
L 55.96 245.68631 
z
" style="fill:#ffffff;"/>
   </g>
   <g id="matplotlib.axis_5">
    <g id="xtick_19">
     <g id="line2d_31">
      <g>
       <use style="stroke:#000000;stroke-width:0.8;" x="75.7977" xlink:href="#m1cf83446f9" y="327.04"/>
      </g>
     </g>
     <g id="text_27">
      <!-- 0.00 -->
      <g transform="translate(62.438325 343.158125)scale(0.12 -0.12)">
       <use xlink:href="#DejaVuSans-48"/>
       <use x="63.623047" xlink:href="#DejaVuSans-46"/>
       <use x="95.410156" xlink:href="#DejaVuSans-48"/>
       <use x="159.033203" xlink:href="#DejaVuSans-48"/>
      </g>
     </g>
    </g>
    <g id="xtick_20">
     <g id="line2d_32">
      <g>
       <use style="stroke:#000000;stroke-width:0.8;" x="125.918215" xlink:href="#m1cf83446f9" y="327.04"/>
      </g>
     </g>
     <g id="text_28">
      <!-- 0.25 -->
      <g transform="translate(112.55884 343.158125)scale(0.12 -0.12)">
       <use xlink:href="#DejaVuSans-48"/>
       <use x="63.623047" xlink:href="#DejaVuSans-46"/>
       <use x="95.410156" xlink:href="#DejaVuSans-50"/>
       <use x="159.033203" xlink:href="#DejaVuSans-53"/>
      </g>
     </g>
    </g>
    <g id="xtick_21">
     <g id="line2d_33">
      <g>
       <use style="stroke:#000000;stroke-width:0.8;" x="176.038729" xlink:href="#m1cf83446f9" y="327.04"/>
      </g>
     </g>
     <g id="text_29">
      <!-- 0.50 -->
      <g transform="translate(162.679354 343.158125)scale(0.12 -0.12)">
       <use xlink:href="#DejaVuSans-48"/>
       <use x="63.623047" xlink:href="#DejaVuSans-46"/>
       <use x="95.410156" xlink:href="#DejaVuSans-53"/>
       <use x="159.033203" xlink:href="#DejaVuSans-48"/>
      </g>
     </g>
    </g>
    <g id="xtick_22">
     <g id="line2d_34">
      <g>
       <use style="stroke:#000000;stroke-width:0.8;" x="226.159244" xlink:href="#m1cf83446f9" y="327.04"/>
      </g>
     </g>
     <g id="text_30">
      <!-- 0.75 -->
      <g transform="translate(212.799869 343.158125)scale(0.12 -0.12)">
       <use xlink:href="#DejaVuSans-48"/>
       <use x="63.623047" xlink:href="#DejaVuSans-46"/>
       <use x="95.410156" xlink:href="#DejaVuSans-55"/>
       <use x="159.033203" xlink:href="#DejaVuSans-53"/>
      </g>
     </g>
    </g>
    <g id="xtick_23">
     <g id="line2d_35">
      <g>
       <use style="stroke:#000000;stroke-width:0.8;" x="276.279759" xlink:href="#m1cf83446f9" y="327.04"/>
      </g>
     </g>
     <g id="text_31">
      <!-- 1.00 -->
      <g transform="translate(262.920384 343.158125)scale(0.12 -0.12)">
       <use xlink:href="#DejaVuSans-49"/>
       <use x="63.623047" xlink:href="#DejaVuSans-46"/>
       <use x="95.410156" xlink:href="#DejaVuSans-48"/>
       <use x="159.033203" xlink:href="#DejaVuSans-48"/>
      </g>
     </g>
    </g>
    <g id="xtick_24">
     <g id="line2d_36">
      <g>
       <use style="stroke:#000000;stroke-width:0.8;" x="326.400274" xlink:href="#m1cf83446f9" y="327.04"/>
      </g>
     </g>
     <g id="text_32">
      <!-- 1.25 -->
      <g transform="translate(313.040899 343.158125)scale(0.12 -0.12)">
       <use xlink:href="#DejaVuSans-49"/>
       <use x="63.623047" xlink:href="#DejaVuSans-46"/>
       <use x="95.410156" xlink:href="#DejaVuSans-50"/>
       <use x="159.033203" xlink:href="#DejaVuSans-53"/>
      </g>
     </g>
    </g>
    <g id="xtick_25">
     <g id="line2d_37">
      <g>
       <use style="stroke:#000000;stroke-width:0.8;" x="376.520789" xlink:href="#m1cf83446f9" y="327.04"/>
      </g>
     </g>
     <g id="text_33">
      <!-- 1.50 -->
      <g transform="translate(363.161414 343.158125)scale(0.12 -0.12)">
       <use xlink:href="#DejaVuSans-49"/>
       <use x="63.623047" xlink:href="#DejaVuSans-46"/>
       <use x="95.410156" xlink:href="#DejaVuSans-53"/>
       <use x="159.033203" xlink:href="#DejaVuSans-48"/>
      </g>
     </g>
    </g>
    <g id="xtick_26">
     <g id="line2d_38">
      <g>
       <use style="stroke:#000000;stroke-width:0.8;" x="426.641303" xlink:href="#m1cf83446f9" y="327.04"/>
      </g>
     </g>
     <g id="text_34">
      <!-- 1.75 -->
      <g transform="translate(413.281928 343.158125)scale(0.12 -0.12)">
       <use xlink:href="#DejaVuSans-49"/>
       <use x="63.623047" xlink:href="#DejaVuSans-46"/>
       <use x="95.410156" xlink:href="#DejaVuSans-55"/>
       <use x="159.033203" xlink:href="#DejaVuSans-53"/>
      </g>
     </g>
    </g>
    <g id="xtick_27">
     <g id="line2d_39">
      <g>
       <use style="stroke:#000000;stroke-width:0.8;" x="476.761818" xlink:href="#m1cf83446f9" y="327.04"/>
      </g>
     </g>
     <g id="text_35">
      <!-- 2.00 -->
      <g transform="translate(463.402443 343.158125)scale(0.12 -0.12)">
       <use xlink:href="#DejaVuSans-50"/>
       <use x="63.623047" xlink:href="#DejaVuSans-46"/>
       <use x="95.410156" xlink:href="#DejaVuSans-48"/>
       <use x="159.033203" xlink:href="#DejaVuSans-48"/>
      </g>
     </g>
    </g>
   </g>
   <g id="matplotlib.axis_6">
    <g id="ytick_7">
     <g id="line2d_40">
      <g>
       <use style="stroke:#000000;stroke-width:0.8;" x="55.96" xlink:href="#mb27295fb76" y="308.047976"/>
      </g>
     </g>
     <g id="text_36">
      <!-- 0.6 -->
      <defs>
       <path d="M 33.015625 40.375 
Q 26.375 40.375 22.484375 35.828125 
Q 18.609375 31.296875 18.609375 23.390625 
Q 18.609375 15.53125 22.484375 10.953125 
Q 26.375 6.390625 33.015625 6.390625 
Q 39.65625 6.390625 43.53125 10.953125 
Q 47.40625 15.53125 47.40625 23.390625 
Q 47.40625 31.296875 43.53125 35.828125 
Q 39.65625 40.375 33.015625 40.375 
z
M 52.59375 71.296875 
L 52.59375 62.3125 
Q 48.875 64.0625 45.09375 64.984375 
Q 41.3125 65.921875 37.59375 65.921875 
Q 27.828125 65.921875 22.671875 59.328125 
Q 17.53125 52.734375 16.796875 39.40625 
Q 19.671875 43.65625 24.015625 45.921875 
Q 28.375 48.1875 33.59375 48.1875 
Q 44.578125 48.1875 50.953125 41.515625 
Q 57.328125 34.859375 57.328125 23.390625 
Q 57.328125 12.15625 50.6875 5.359375 
Q 44.046875 -1.421875 33.015625 -1.421875 
Q 20.359375 -1.421875 13.671875 8.265625 
Q 6.984375 17.96875 6.984375 36.375 
Q 6.984375 53.65625 15.1875 63.9375 
Q 23.390625 74.21875 37.203125 74.21875 
Q 40.921875 74.21875 44.703125 73.484375 
Q 48.484375 72.75 52.59375 71.296875 
z
" id="DejaVuSans-54"/>
      </defs>
      <g transform="translate(29.87625 312.607039)scale(0.12 -0.12)">
       <use xlink:href="#DejaVuSans-48"/>
       <use x="63.623047" xlink:href="#DejaVuSans-46"/>
       <use x="95.410156" xlink:href="#DejaVuSans-54"/>
      </g>
     </g>
    </g>
    <g id="ytick_8">
     <g id="line2d_41">
      <g>
       <use style="stroke:#000000;stroke-width:0.8;" x="55.96" xlink:href="#mb27295fb76" y="278.716091"/>
      </g>
     </g>
     <g id="text_37">
      <!-- 0.8 -->
      <defs>
       <path d="M 31.78125 34.625 
Q 24.75 34.625 20.71875 30.859375 
Q 16.703125 27.09375 16.703125 20.515625 
Q 16.703125 13.921875 20.71875 10.15625 
Q 24.75 6.390625 31.78125 6.390625 
Q 38.8125 6.390625 42.859375 10.171875 
Q 46.921875 13.96875 46.921875 20.515625 
Q 46.921875 27.09375 42.890625 30.859375 
Q 38.875 34.625 31.78125 34.625 
z
M 21.921875 38.8125 
Q 15.578125 40.375 12.03125 44.71875 
Q 8.5 49.078125 8.5 55.328125 
Q 8.5 64.0625 14.71875 69.140625 
Q 20.953125 74.21875 31.78125 74.21875 
Q 42.671875 74.21875 48.875 69.140625 
Q 55.078125 64.0625 55.078125 55.328125 
Q 55.078125 49.078125 51.53125 44.71875 
Q 48 40.375 41.703125 38.8125 
Q 48.828125 37.15625 52.796875 32.3125 
Q 56.78125 27.484375 56.78125 20.515625 
Q 56.78125 9.90625 50.3125 4.234375 
Q 43.84375 -1.421875 31.78125 -1.421875 
Q 19.734375 -1.421875 13.25 4.234375 
Q 6.78125 9.90625 6.78125 20.515625 
Q 6.78125 27.484375 10.78125 32.3125 
Q 14.796875 37.15625 21.921875 38.8125 
z
M 18.3125 54.390625 
Q 18.3125 48.734375 21.84375 45.5625 
Q 25.390625 42.390625 31.78125 42.390625 
Q 38.140625 42.390625 41.71875 45.5625 
Q 45.3125 48.734375 45.3125 54.390625 
Q 45.3125 60.0625 41.71875 63.234375 
Q 38.140625 66.40625 31.78125 66.40625 
Q 25.390625 66.40625 21.84375 63.234375 
Q 18.3125 60.0625 18.3125 54.390625 
z
" id="DejaVuSans-56"/>
      </defs>
      <g transform="translate(29.87625 283.275153)scale(0.12 -0.12)">
       <use xlink:href="#DejaVuSans-48"/>
       <use x="63.623047" xlink:href="#DejaVuSans-46"/>
       <use x="95.410156" xlink:href="#DejaVuSans-56"/>
      </g>
     </g>
    </g>
    <g id="ytick_9">
     <g id="line2d_42">
      <g>
       <use style="stroke:#000000;stroke-width:0.8;" x="55.96" xlink:href="#mb27295fb76" y="249.384205"/>
      </g>
     </g>
     <g id="text_38">
      <!-- 1.0 -->
      <g transform="translate(29.87625 253.943268)scale(0.12 -0.12)">
       <use xlink:href="#DejaVuSans-49"/>
       <use x="63.623047" xlink:href="#DejaVuSans-46"/>
       <use x="95.410156" xlink:href="#DejaVuSans-48"/>
      </g>
     </g>
    </g>
    <g id="text_39">
     <!-- weight -->
     <defs>
      <path d="M 4.203125 54.6875 
L 13.1875 54.6875 
L 24.421875 12.015625 
L 35.59375 54.6875 
L 46.1875 54.6875 
L 57.421875 12.015625 
L 68.609375 54.6875 
L 77.59375 54.6875 
L 63.28125 0 
L 52.6875 0 
L 40.921875 44.828125 
L 29.109375 0 
L 18.5 0 
z
" id="DejaVuSans-119"/>
      <path d="M 9.421875 54.6875 
L 18.40625 54.6875 
L 18.40625 0 
L 9.421875 0 
z
M 9.421875 75.984375 
L 18.40625 75.984375 
L 18.40625 64.59375 
L 9.421875 64.59375 
z
" id="DejaVuSans-105"/>
      <path d="M 45.40625 27.984375 
Q 45.40625 37.75 41.375 43.109375 
Q 37.359375 48.484375 30.078125 48.484375 
Q 22.859375 48.484375 18.828125 43.109375 
Q 14.796875 37.75 14.796875 27.984375 
Q 14.796875 18.265625 18.828125 12.890625 
Q 22.859375 7.515625 30.078125 7.515625 
Q 37.359375 7.515625 41.375 12.890625 
Q 45.40625 18.265625 45.40625 27.984375 
z
M 54.390625 6.78125 
Q 54.390625 -7.171875 48.1875 -13.984375 
Q 42 -20.796875 29.203125 -20.796875 
Q 24.46875 -20.796875 20.265625 -20.09375 
Q 16.0625 -19.390625 12.109375 -17.921875 
L 12.109375 -9.1875 
Q 16.0625 -11.328125 19.921875 -12.34375 
Q 23.78125 -13.375 27.78125 -13.375 
Q 36.625 -13.375 41.015625 -8.765625 
Q 45.40625 -4.15625 45.40625 5.171875 
L 45.40625 9.625 
Q 42.625 4.78125 38.28125 2.390625 
Q 33.9375 0 27.875 0 
Q 17.828125 0 11.671875 7.65625 
Q 5.515625 15.328125 5.515625 27.984375 
Q 5.515625 40.671875 11.671875 48.328125 
Q 17.828125 56 27.875 56 
Q 33.9375 56 38.28125 53.609375 
Q 42.625 51.21875 45.40625 46.390625 
L 45.40625 54.6875 
L 54.390625 54.6875 
z
" id="DejaVuSans-103"/>
      <path d="M 54.890625 33.015625 
L 54.890625 0 
L 45.90625 0 
L 45.90625 32.71875 
Q 45.90625 40.484375 42.875 44.328125 
Q 39.84375 48.1875 33.796875 48.1875 
Q 26.515625 48.1875 22.3125 43.546875 
Q 18.109375 38.921875 18.109375 30.90625 
L 18.109375 0 
L 9.078125 0 
L 9.078125 75.984375 
L 18.109375 75.984375 
L 18.109375 46.1875 
Q 21.34375 51.125 25.703125 53.5625 
Q 30.078125 56 35.796875 56 
Q 45.21875 56 50.046875 50.171875 
Q 54.890625 44.34375 54.890625 33.015625 
z
" id="DejaVuSans-104"/>
     </defs>
     <g transform="translate(23.380625 306.59253)rotate(-90)scale(0.12 -0.12)">
      <use xlink:href="#DejaVuSans-119"/>
      <use x="81.787109" xlink:href="#DejaVuSans-101"/>
      <use x="143.310547" xlink:href="#DejaVuSans-105"/>
      <use x="171.09375" xlink:href="#DejaVuSans-103"/>
      <use x="234.570312" xlink:href="#DejaVuSans-104"/>
      <use x="297.949219" xlink:href="#DejaVuSans-116"/>
     </g>
    </g>
   </g>
   <g id="line2d_43">
    <path clip-path="url(#p54b5e21e53)" d="M 75.998182 322.713919 
L 100.657475 322.713919 
L 100.857957 323.342105 
L 106.671937 323.342105 
L 106.872419 306.829582 
L 107.473865 306.829582 
L 107.674347 294.319416 
L 109.478686 294.319416 
L 109.679168 285.318701 
L 182.253673 285.318701 
L 182.454155 285.825912 
L 190.272956 285.825912 
L 190.473438 274.88273 
L 190.874402 274.88273 
L 191.074884 266.300418 
L 191.876812 266.300418 
L 192.077294 259.800209 
L 270.465779 259.800209 
L 270.666261 251.274946 
L 271.067225 251.274946 
L 271.267707 249.384205 
L 476.761818 249.384205 
L 476.761818 249.384205 
" style="fill:none;stroke:#ff0000;stroke-linecap:square;stroke-width:1.5;"/>
   </g>
   <g id="patch_13">
    <path d="M 55.96 327.04 
L 55.96 245.68631 
" style="fill:none;stroke:#000000;stroke-linecap:square;stroke-linejoin:miter;stroke-width:0.8;"/>
   </g>
   <g id="patch_14">
    <path d="M 496.8 327.04 
L 496.8 245.68631 
" style="fill:none;stroke:#000000;stroke-linecap:square;stroke-linejoin:miter;stroke-width:0.8;"/>
   </g>
   <g id="patch_15">
    <path d="M 55.96 327.04 
L 496.8 327.04 
" style="fill:none;stroke:#000000;stroke-linecap:square;stroke-linejoin:miter;stroke-width:0.8;"/>
   </g>
   <g id="patch_16">
    <path d="M 55.96 245.68631 
L 496.8 245.68631 
" style="fill:none;stroke:#000000;stroke-linecap:square;stroke-linejoin:miter;stroke-width:0.8;"/>
   </g>
  </g>
 </g>
 <defs>
  <clipPath id="p7d8b55eaaa">
   <rect height="81.35369" width="440.84" x="55.96" y="14.32631"/>
  </clipPath>
  <clipPath id="p607d43da59">
   <rect height="81.35369" width="440.84" x="55.96" y="130.00631"/>
  </clipPath>
  <clipPath id="p54b5e21e53">
   <rect height="81.35369" width="440.84" x="55.96" y="245.68631"/>
  </clipPath>
 </defs>
</svg>
